<?xml version="1.0" encoding="utf-8" standalone="no"?>
<!DOCTYPE svg PUBLIC "-//W3C//DTD SVG 1.1//EN"
  "http://www.w3.org/Graphics/SVG/1.1/DTD/svg11.dtd">
<svg xmlns:xlink="http://www.w3.org/1999/xlink" width="1152pt" height="648pt" viewBox="0 0 1152 648" xmlns="http://www.w3.org/2000/svg" version="1.1">
 <metadata>
  <rdf:RDF xmlns:dc="http://purl.org/dc/elements/1.1/" xmlns:cc="http://creativecommons.org/ns#" xmlns:rdf="http://www.w3.org/1999/02/22-rdf-syntax-ns#">
   <cc:Work>
    <dc:type rdf:resource="http://purl.org/dc/dcmitype/StillImage"/>
    <dc:date>2023-05-03T21:58:17.406858</dc:date>
    <dc:format>image/svg+xml</dc:format>
    <dc:creator>
     <cc:Agent>
      <dc:title>Matplotlib v3.7.1, https://matplotlib.org/</dc:title>
     </cc:Agent>
    </dc:creator>
   </cc:Work>
  </rdf:RDF>
 </metadata>
 <defs>
  <style type="text/css">*{stroke-linejoin: round; stroke-linecap: butt}</style>
 </defs>
 <g id="figure_1">
  <g id="patch_1">
   <path d="M 0 648 
L 1152 648 
L 1152 0 
L 0 0 
z
" style="fill: #ffffff"/>
  </g>
  <g id="axes_1">
   <g id="patch_2">
    <path d="M 144 576.72 
L 1036.8 576.72 
L 1036.8 77.76 
L 144 77.76 
z
" style="fill: #ffffff"/>
   </g>
   <g id="PolyCollection_1">
    <path d="M -2151.771429 1309.270868 
L -2151.771429 1309.270868 
L -2146.664607 1307.585348 
L -2141.557786 1305.899827 
L -2136.450965 1304.214306 
L -2131.344144 1302.528785 
L -2126.237323 1300.843265 
L -2121.130502 1299.157744 
L -2116.023681 1297.472223 
L -2110.91686 1295.786702 
L -2105.810039 1294.101182 
L -2100.703218 1292.415661 
L -2095.596396 1290.73014 
L -2090.489575 1289.044619 
L -2085.382754 1287.359099 
L -2080.275933 1285.673578 
L -2075.169112 1283.988057 
L -2070.062291 1282.302536 
L -2064.95547 1280.617016 
L -2059.848649 1278.931495 
L -2054.741828 1277.245974 
L -2049.635006 1275.560453 
L -2044.528185 1273.874933 
L -2039.421364 1272.189412 
L -2034.314543 1270.503891 
L -2029.207722 1268.81837 
L -2024.100901 1267.13285 
L -2018.99408 1265.447329 
L -2013.887259 1263.761808 
L -2008.780438 1262.076287 
L -2003.673616 1260.390767 
L -1998.566795 1258.705246 
L -1993.459974 1257.019725 
L -1988.353153 1255.334204 
L -1983.246332 1253.648684 
L -1978.139511 1251.963163 
L -1973.03269 1250.277642 
L -1967.925869 1248.592121 
L -1962.819048 1246.9066 
L -1957.712227 1245.22108 
L -1952.605405 1243.535559 
L -1947.498584 1241.850038 
L -1942.391763 1240.164517 
L -1937.284942 1238.478997 
L -1932.178121 1236.793476 
L -1927.0713 1235.107955 
L -1921.964479 1233.422434 
L -1916.857658 1231.736914 
L -1911.750837 1230.051393 
L -1906.644015 1228.365872 
L -1901.537194 1226.680351 
L -1896.430373 1224.994831 
L -1891.323552 1223.30931 
L -1886.216731 1221.623789 
L -1881.10991 1219.938268 
L -1876.003089 1218.252748 
L -1870.896268 1216.567227 
L -1865.789447 1214.881706 
L -1860.682625 1213.196185 
L -1855.575804 1211.510665 
L -1850.468983 1209.825144 
L -1845.362162 1208.139623 
L -1840.255341 1206.454102 
L -1835.14852 1204.768582 
L -1830.041699 1203.083061 
L -1824.934878 1201.39754 
L -1819.828057 1199.712019 
L -1814.721236 1198.026499 
L -1809.614414 1196.340978 
L -1804.507593 1194.655457 
L -1799.400772 1192.969936 
L -1794.293951 1191.284416 
L -1789.18713 1189.598895 
L -1784.080309 1187.913374 
L -1778.973488 1186.227853 
L -1773.866667 1184.542333 
L -1768.759846 1182.856812 
L -1763.653024 1181.171291 
L -1758.546203 1179.48577 
L -1753.439382 1177.800249 
L -1748.332561 1176.114729 
L -1743.22574 1174.429208 
L -1738.118919 1172.743687 
L -1733.012098 1171.058166 
L -1727.905277 1169.372646 
L -1722.798456 1167.687125 
L -1717.691634 1166.001604 
L -1712.584813 1164.316083 
L -1707.477992 1162.630563 
L -1702.371171 1160.945042 
L -1697.26435 1159.259521 
L -1692.157529 1157.574 
L -1687.050708 1155.88848 
L -1681.943887 1154.202959 
L -1676.837066 1152.517438 
L -1671.730245 1150.831917 
L -1666.623423 1149.146397 
L -1661.516602 1147.460876 
L -1656.409781 1145.775355 
L -1651.30296 1144.089834 
L -1646.196139 1142.404314 
L -1641.089318 1140.718793 
L -1635.982497 1139.033272 
L -1630.875676 1137.347751 
L -1625.768855 1135.662231 
L -1620.662033 1133.97671 
L -1615.555212 1132.291189 
L -1610.448391 1130.605668 
L -1605.34157 1128.920148 
L -1600.234749 1127.234627 
L -1595.127928 1125.549106 
L -1590.021107 1123.863585 
L -1584.914286 1122.178065 
L -1579.807465 1120.492544 
L -1574.700644 1118.807023 
L -1569.593822 1117.121502 
L -1564.487001 1115.435981 
L -1559.38018 1113.750461 
L -1554.273359 1112.06494 
L -1549.166538 1110.379419 
L -1544.059717 1108.693898 
L -1538.952896 1107.008378 
L -1533.846075 1105.322857 
L -1528.739254 1103.637336 
L -1523.632432 1101.951815 
L -1518.525611 1100.266295 
L -1513.41879 1098.580774 
L -1508.311969 1096.895253 
L -1503.205148 1095.209732 
L -1498.098327 1093.524212 
L -1492.991506 1091.838691 
L -1487.884685 1090.15317 
L -1482.777864 1088.467649 
L -1477.671042 1086.782129 
L -1472.564221 1085.096608 
L -1467.4574 1083.411087 
L -1462.350579 1081.725566 
L -1457.243758 1080.040046 
L -1452.136937 1078.354525 
L -1447.030116 1076.669004 
L -1441.923295 1074.983483 
L -1436.816474 1073.297963 
L -1431.709653 1071.612442 
L -1426.602831 1069.926921 
L -1421.49601 1068.2414 
L -1416.389189 1066.55588 
L -1411.282368 1064.870359 
L -1406.175547 1063.184838 
L -1401.068726 1061.499317 
L -1395.961905 1059.813797 
L -1390.855084 1058.128276 
L -1385.748263 1056.442755 
L -1380.641441 1054.757234 
L -1375.53462 1053.071714 
L -1370.427799 1051.386193 
L -1365.320978 1049.700672 
L -1360.214157 1048.015151 
L -1355.107336 1046.32963 
L -1350.000515 1044.64411 
L -1344.893694 1042.958589 
L -1339.786873 1041.273068 
L -1334.680051 1039.587547 
L -1329.57323 1037.902027 
L -1324.466409 1036.216506 
L -1319.359588 1034.530985 
L -1314.252767 1032.845464 
L -1309.145946 1031.159944 
L -1304.039125 1029.474423 
L -1298.932304 1027.788902 
L -1293.825483 1026.103381 
L -1288.718662 1024.417861 
L -1283.61184 1022.73234 
L -1278.505019 1021.046819 
L -1273.398198 1019.361298 
L -1268.291377 1017.675778 
L -1263.184556 1015.990257 
L -1258.077735 1014.304736 
L -1252.970914 1012.619215 
L -1247.864093 1010.933695 
L -1242.757272 1009.248174 
L -1237.65045 1007.562653 
L -1232.543629 1005.877132 
L -1227.436808 1004.191612 
L -1222.329987 1002.506091 
L -1217.223166 1000.82057 
L -1212.116345 999.135049 
L -1207.009524 997.449529 
L -1201.902703 995.764008 
L -1196.795882 994.078487 
L -1191.68906 992.392966 
L -1186.582239 990.707446 
L -1181.475418 989.021925 
L -1176.368597 987.336404 
L -1171.261776 985.650883 
L -1166.154955 983.965362 
L -1161.048134 982.279842 
L -1155.941313 980.594321 
L -1150.834492 978.9088 
L -1145.727671 977.223279 
L -1140.620849 975.537759 
L -1135.514028 973.852238 
L -1130.407207 972.166717 
L -1125.300386 970.481196 
L -1120.193565 968.795676 
L -1115.086744 967.110155 
L -1109.979923 965.424634 
L -1104.873102 963.739113 
L -1099.766281 962.053593 
L -1094.659459 960.368072 
L -1089.552638 958.682551 
L -1084.445817 956.99703 
L -1079.338996 955.31151 
L -1074.232175 953.625989 
L -1069.125354 951.940468 
L -1064.018533 950.254947 
L -1058.911712 948.569427 
L -1053.804891 946.883906 
L -1048.698069 945.198385 
L -1043.591248 943.512864 
L -1038.484427 941.827344 
L -1033.377606 940.141823 
L -1028.270785 938.456302 
L -1023.163964 936.770781 
L -1018.057143 935.085261 
L -1012.950322 933.39974 
L -1007.843501 931.714219 
L -1002.73668 930.028698 
L -997.629858 928.343178 
L -992.523037 926.657657 
L -987.416216 924.972136 
L -982.309395 923.286615 
L -977.202574 921.601094 
L -972.095753 919.915574 
L -966.988932 918.230053 
L -961.882111 916.544532 
L -956.77529 914.859011 
L -951.668468 913.173491 
L -946.561647 911.48797 
L -941.454826 909.802449 
L -936.348005 908.116928 
L -931.241184 906.431408 
L -926.134363 904.745887 
L -921.027542 903.060366 
L -915.920721 901.374845 
L -910.8139 899.689325 
L -905.707079 898.003804 
L -900.600257 896.318283 
L -895.493436 894.632762 
L -890.386615 892.947242 
L -885.279794 891.261721 
L -880.172973 889.5762 
L -875.066152 887.890679 
L -869.959331 886.205159 
L -864.85251 884.519638 
L -859.745689 882.834117 
L -854.638867 881.148596 
L -849.532046 879.463076 
L -844.425225 877.777555 
L -839.318404 876.092034 
L -834.211583 874.406513 
L -829.104762 872.720993 
L -823.997941 871.035472 
L -818.89112 869.349951 
L -813.784299 867.66443 
L -808.677477 865.97891 
L -803.570656 864.293389 
L -798.463835 862.607868 
L -793.357014 860.922347 
L -788.250193 859.236827 
L -783.143372 857.551306 
L -778.036551 855.865785 
L -772.92973 854.180264 
L -767.822909 852.494743 
L -762.716088 850.809223 
L -757.609266 849.123702 
L -752.502445 847.438181 
L -747.395624 845.75266 
L -742.288803 844.06714 
L -737.181982 842.381619 
L -732.075161 840.696098 
L -726.96834 839.010577 
L -721.861519 837.325057 
L -716.754698 835.639536 
L -711.647876 833.954015 
L -706.541055 832.268494 
L -701.434234 830.582974 
L -696.327413 828.897453 
L -691.220592 827.211932 
L -686.113771 825.526411 
L -681.00695 823.840891 
L -675.900129 822.15537 
L -670.793308 820.469849 
L -665.686486 818.784328 
L -660.579665 817.098808 
L -655.472844 815.413287 
L -650.366023 813.727766 
L -645.259202 812.042245 
L -640.152381 810.356725 
L -635.04556 808.671204 
L -629.938739 806.985683 
L -624.831918 805.300162 
L -619.725097 803.614642 
L -614.618275 801.929121 
L -609.511454 800.2436 
L -604.404633 798.558079 
L -599.297812 796.872559 
L -594.190991 795.187038 
L -589.08417 793.501517 
L -583.977349 791.815996 
L -578.870528 790.130475 
L -573.763707 788.444955 
L -568.656885 786.759434 
L -563.550064 785.073913 
L -558.443243 783.388392 
L -553.336422 781.702872 
L -548.229601 780.017351 
L -543.12278 778.33183 
L -538.015959 776.646309 
L -532.909138 774.960789 
L -527.802317 773.275268 
L -522.695495 771.589747 
L -517.588674 769.904226 
L -512.481853 768.218706 
L -507.375032 766.533185 
L -502.268211 764.847664 
L -497.16139 763.162143 
L -492.054569 761.476623 
L -486.947748 759.791102 
L -481.840927 758.105581 
L -476.734106 756.42006 
L -471.627284 754.73454 
L -466.520463 753.049019 
L -461.413642 751.363498 
L -456.306821 749.677977 
L -451.2 747.992457 
L -446.093179 746.306936 
L -440.986358 744.621415 
L -435.879537 742.935894 
L -430.772716 741.250374 
L -425.665894 739.564853 
L -420.559073 737.879332 
L -415.452252 736.193811 
L -410.345431 734.508291 
L -405.23861 732.82277 
L -400.131789 731.137249 
L -395.024968 729.451728 
L -389.918147 727.766207 
L -384.811326 726.080687 
L -379.704505 724.395166 
L -374.597683 722.709645 
L -369.490862 721.024124 
L -364.384041 719.338604 
L -359.27722 717.653083 
L -354.170399 715.967562 
L -349.063578 714.282041 
L -343.956757 712.596521 
L -338.849936 710.911 
L -333.743115 709.225479 
L -328.636293 707.539958 
L -323.529472 705.854438 
L -318.422651 704.168917 
L -313.31583 702.483396 
L -308.209009 700.797875 
L -303.102188 699.112355 
L -297.995367 697.426834 
L -292.888546 695.741313 
L -287.781725 694.055792 
L -282.674903 692.370272 
L -277.568082 690.684751 
L -272.461261 688.99923 
L -267.35444 687.313709 
L -262.247619 685.628189 
L -257.140798 683.942668 
L -252.033977 682.257147 
L -246.927156 680.571626 
L -241.820335 678.886106 
L -236.713514 677.200585 
L -231.606692 675.515064 
L -226.499871 673.829543 
L -221.39305 672.144023 
L -216.286229 670.458502 
L -211.179408 668.772981 
L -206.072587 667.08746 
L -200.965766 665.40194 
L -195.858945 663.716419 
L -190.752124 662.030898 
L -185.645302 660.345377 
L -180.538481 658.659856 
L -175.43166 656.974336 
L -170.324839 655.288815 
L -165.218018 653.603294 
L -160.111197 651.917773 
L -155.004376 650.232253 
L -149.897555 648.546732 
L -144.790734 646.861211 
L -139.683912 645.17569 
L -134.577091 643.49017 
L -129.47027 641.804649 
L -124.363449 640.119128 
L -119.256628 638.433607 
L -114.149807 636.748087 
L -109.042986 635.062566 
L -103.936165 633.377045 
L -98.829344 631.691524 
L -93.722523 630.006004 
L -88.615701 628.320483 
L -83.50888 626.634962 
L -78.402059 624.949441 
L -73.295238 623.263921 
L -68.188417 621.5784 
L -63.081596 619.892879 
L -57.974775 618.207358 
L -52.867954 616.521838 
L -47.761133 614.836317 
L -42.654311 613.150796 
L -37.54749 611.465275 
L -32.440669 609.779755 
L -27.333848 608.094234 
L -22.227027 606.408713 
L -17.120206 604.723192 
L -12.013385 603.037672 
L -6.906564 601.352151 
L -1.799743 599.66663 
L 3.307079 597.981109 
L 8.4139 596.295588 
L 13.520721 594.610068 
L 18.627542 592.924547 
L 23.734363 591.239026 
L 28.841184 589.553505 
L 33.948005 587.867985 
L 39.054826 586.182464 
L 44.161647 584.496943 
L 49.268468 582.811422 
L 54.37529 581.125902 
L 59.482111 579.440381 
L 64.588932 577.75486 
L 69.695753 576.069339 
L 74.802574 574.383819 
L 79.909395 572.698298 
L 85.016216 571.012777 
L 90.123037 569.327256 
L 95.229858 567.641736 
L 100.33668 565.956215 
L 105.443501 564.270694 
L 110.550322 562.585173 
L 115.657143 560.899653 
L 120.763964 559.214132 
L 125.870785 557.528611 
L 130.977606 555.84309 
L 136.084427 554.15757 
L 141.191248 552.472049 
L 146.298069 550.786528 
L 151.404891 549.101007 
L 156.511712 547.415487 
L 161.618533 545.729966 
L 166.725354 544.044445 
L 171.832175 542.358924 
L 176.938996 540.673404 
L 182.045817 538.987883 
L 187.152638 537.302362 
L 192.259459 535.616841 
L 197.366281 533.931321 
L 202.473102 532.2458 
L 207.579923 530.560279 
L 212.686744 528.874758 
L 217.793565 527.189237 
L 222.900386 525.503717 
L 228.007207 523.818196 
L 233.114028 522.132675 
L 238.220849 520.447154 
L 243.327671 518.761634 
L 248.434492 517.076113 
L 253.541313 515.390592 
L 258.648134 513.705071 
L 263.754955 512.019551 
L 268.861776 510.33403 
L 273.968597 508.648509 
L 279.075418 506.962988 
L 284.182239 505.277468 
L 289.28906 503.591947 
L 294.395882 501.906426 
L 299.502703 500.220905 
L 304.609524 498.535385 
L 309.716345 496.849864 
L 314.823166 495.164343 
L 319.929987 493.478822 
L 325.036808 491.793302 
L 330.143629 490.107781 
L 335.25045 488.42226 
L 340.357272 486.736739 
L 345.464093 485.051219 
L 350.570914 483.365698 
L 355.677735 481.680177 
L 360.784556 479.994656 
L 365.891377 478.309136 
L 370.998198 476.623615 
L 376.105019 474.938094 
L 381.21184 473.252573 
L 386.318662 471.567053 
L 391.425483 469.881532 
L 396.532304 468.196011 
L 401.639125 466.51049 
L 406.745946 464.824969 
L 411.852767 463.139449 
L 416.959588 461.453928 
L 422.066409 459.768407 
L 427.17323 458.082886 
L 432.280051 456.397366 
L 437.386873 454.711845 
L 442.493694 453.026324 
L 447.600515 451.340803 
L 452.707336 449.655283 
L 457.814157 447.969762 
L 462.920978 446.284241 
L 468.027799 444.59872 
L 473.13462 442.9132 
L 478.241441 441.227679 
L 483.348263 439.542158 
L 488.455084 437.856637 
L 493.561905 436.171117 
L 498.668726 434.485596 
L 503.775547 432.800075 
L 508.882368 431.114554 
L 513.989189 429.429034 
L 519.09601 427.743513 
L 524.202831 426.057992 
L 529.309653 424.372471 
L 534.416474 422.686951 
L 539.523295 421.00143 
L 544.630116 419.315909 
L 549.736937 417.630388 
L 554.843758 415.944868 
L 559.950579 414.259347 
L 565.0574 412.573826 
L 570.164221 410.888305 
L 575.271042 409.202785 
L 580.377864 407.517264 
L 585.484685 405.831743 
L 590.591506 404.146222 
L 595.698327 402.460701 
L 600.805148 400.775181 
L 605.911969 399.08966 
L 611.01879 397.404139 
L 616.125611 395.718618 
L 621.232432 394.033098 
L 626.339254 392.347577 
L 631.446075 390.662056 
L 636.552896 388.976535 
L 641.659717 387.291015 
L 646.766538 385.605494 
L 651.873359 383.919973 
L 656.98018 382.234452 
L 662.087001 380.548932 
L 667.193822 378.863411 
L 672.300644 377.17789 
L 677.407465 375.492369 
L 682.514286 373.806849 
L 687.621107 372.121328 
L 692.727928 370.435807 
L 697.834749 368.750286 
L 702.94157 367.064766 
L 708.048391 365.379245 
L 713.155212 363.693724 
L 718.262033 362.008203 
L 723.368855 360.322683 
L 728.475676 358.637162 
L 733.582497 356.951641 
L 738.689318 355.26612 
L 743.796139 353.5806 
L 748.90296 351.927807 
L 754.009781 354.494111 
L 759.116602 357.060415 
L 764.223423 359.626719 
L 769.330245 362.193023 
L 774.437066 364.759327 
L 779.543887 367.325631 
L 784.650708 369.891935 
L 789.757529 372.45824 
L 794.86435 375.024544 
L 799.971171 377.590848 
L 805.077992 380.157152 
L 810.184813 382.723456 
L 815.291634 385.28976 
L 820.398456 387.856064 
L 825.505277 390.422368 
L 830.612098 392.988672 
L 835.718919 395.554976 
L 840.82574 398.12128 
L 845.932561 400.687584 
L 851.039382 403.253888 
L 856.146203 405.820192 
L 861.253024 408.386496 
L 866.359846 410.9528 
L 871.466667 413.519104 
L 876.573488 416.085408 
L 881.680309 418.651712 
L 886.78713 421.218016 
L 891.893951 423.78432 
L 897.000772 426.350624 
L 902.107593 428.916928 
L 907.214414 431.483232 
L 912.321236 434.049536 
L 917.428057 436.61584 
L 922.534878 439.182144 
L 927.641699 441.748448 
L 932.74852 444.314752 
L 937.855341 446.881056 
L 942.962162 449.44736 
L 948.068983 452.013664 
L 953.175804 454.579968 
L 958.282625 457.146272 
L 963.389447 459.712576 
L 968.496268 462.27888 
L 973.603089 464.845184 
L 978.70991 467.411488 
L 983.816731 469.977792 
L 988.923552 472.544096 
L 994.030373 475.1104 
L 999.137194 477.676704 
L 1004.244015 480.243008 
L 1009.350837 482.809312 
L 1014.457658 485.375616 
L 1019.564479 487.94192 
L 1024.6713 490.508224 
L 1029.778121 493.074528 
L 1034.884942 495.640832 
L 1039.991763 498.207136 
L 1045.098584 500.77344 
L 1050.205405 503.339744 
L 1055.312227 505.906048 
L 1060.419048 508.472353 
L 1065.525869 511.038657 
L 1070.63269 513.604961 
L 1075.739511 516.171265 
L 1080.846332 518.737569 
L 1085.953153 521.303873 
L 1091.059974 523.870177 
L 1096.166795 526.436481 
L 1101.273616 529.002785 
L 1106.380438 531.569089 
L 1111.487259 534.135393 
L 1116.59408 536.701697 
L 1121.700901 539.268001 
L 1126.807722 541.834305 
L 1131.914543 544.400609 
L 1137.021364 546.966913 
L 1142.128185 549.533217 
L 1147.235006 552.099521 
L 1152.341828 554.665825 
L 1157.448649 557.232129 
L 1162.55547 559.798433 
L 1167.662291 562.364737 
L 1172.769112 564.931041 
L 1177.875933 567.497345 
L 1182.982754 570.063649 
L 1188.089575 572.629953 
L 1193.196396 575.196257 
L 1198.303218 577.762561 
L 1203.410039 580.328865 
L 1208.51686 582.895169 
L 1213.623681 585.461473 
L 1218.730502 588.027777 
L 1223.837323 590.594081 
L 1228.944144 593.160385 
L 1234.050965 595.726689 
L 1239.157786 598.292993 
L 1244.264607 600.859297 
L 1249.371429 603.425601 
L 1254.47825 605.991905 
L 1259.585071 608.558209 
L 1264.691892 611.124513 
L 1269.798713 613.690817 
L 1274.905534 616.257121 
L 1280.012355 618.823425 
L 1285.119176 621.389729 
L 1290.225997 623.956033 
L 1295.332819 626.522337 
L 1300.43964 629.088641 
L 1305.546461 631.654945 
L 1310.653282 634.221249 
L 1315.760103 636.787553 
L 1320.866924 639.353857 
L 1325.973745 641.920161 
L 1331.080566 644.486465 
L 1336.187387 647.05277 
L 1341.294208 649.619074 
L 1346.40103 652.185378 
L 1351.507851 654.751682 
L 1356.614672 657.317986 
L 1361.721493 659.88429 
L 1366.828314 662.450594 
L 1371.935135 665.016898 
L 1377.041956 667.583202 
L 1382.148777 670.149506 
L 1387.255598 672.71581 
L 1392.36242 675.282114 
L 1397.469241 677.848418 
L 1402.576062 680.414722 
L 1407.682883 682.981026 
L 1412.789704 685.54733 
L 1417.896525 688.113634 
L 1423.003346 690.679938 
L 1428.110167 693.246242 
L 1433.216988 695.812546 
L 1438.32381 698.37885 
L 1443.430631 700.945154 
L 1448.537452 703.511458 
L 1453.644273 706.077762 
L 1458.751094 708.644066 
L 1463.857915 711.21037 
L 1468.964736 713.776674 
L 1474.071557 716.342978 
L 1479.178378 718.909282 
L 1484.285199 721.475586 
L 1489.392021 724.04189 
L 1494.498842 726.608194 
L 1499.605663 729.174498 
L 1504.712484 731.740802 
L 1509.819305 734.307106 
L 1514.926126 736.87341 
L 1520.032947 739.439714 
L 1525.139768 742.006018 
L 1530.246589 744.572322 
L 1535.353411 747.138626 
L 1540.460232 749.70493 
L 1545.567053 752.271234 
L 1550.673874 754.837538 
L 1555.780695 757.403842 
L 1560.887516 759.970146 
L 1565.994337 762.53645 
L 1571.101158 765.102754 
L 1576.207979 767.669058 
L 1581.314801 770.235362 
L 1586.421622 772.801666 
L 1591.528443 775.36797 
L 1596.635264 777.934274 
L 1601.742085 780.500578 
L 1606.848906 783.066883 
L 1611.955727 785.633187 
L 1617.062548 788.199491 
L 1622.169369 790.765795 
L 1627.27619 793.332099 
L 1632.383012 795.898403 
L 1637.489833 798.464707 
L 1642.596654 801.031011 
L 1647.703475 803.597315 
L 1652.810296 806.163619 
L 1657.917117 808.729923 
L 1663.023938 811.296227 
L 1668.130759 813.862531 
L 1673.23758 816.428835 
L 1678.344402 818.995139 
L 1683.451223 821.561443 
L 1688.558044 824.127747 
L 1693.664865 826.694051 
L 1698.771686 829.260355 
L 1703.878507 831.826659 
L 1708.985328 834.392963 
L 1714.092149 836.959267 
L 1719.19897 839.525571 
L 1724.305792 842.091875 
L 1729.412613 844.658179 
L 1734.519434 847.224483 
L 1739.626255 849.790787 
L 1744.733076 852.357091 
L 1749.839897 854.923395 
L 1754.946718 857.489699 
L 1760.053539 860.056003 
L 1765.16036 862.622307 
L 1770.267181 865.188611 
L 1775.374003 867.754915 
L 1780.480824 870.321219 
L 1785.587645 872.887523 
L 1790.694466 875.453827 
L 1795.801287 878.020131 
L 1800.908108 880.586435 
L 1806.014929 883.152739 
L 1811.12175 885.719043 
L 1816.228571 888.285347 
L 1821.335393 890.851651 
L 1826.442214 893.417955 
L 1831.549035 895.984259 
L 1836.655856 898.550563 
L 1841.762677 901.116867 
L 1846.869498 903.683171 
L 1851.976319 906.249475 
L 1857.08314 908.815779 
L 1862.189961 911.382083 
L 1867.296782 913.948387 
L 1872.403604 916.514691 
L 1877.510425 919.080995 
L 1882.617246 921.6473 
L 1887.724067 924.213604 
L 1892.830888 926.779908 
L 1897.937709 929.346212 
L 1903.04453 931.912516 
L 1908.151351 934.47882 
L 1913.258172 937.045124 
L 1918.364994 939.611428 
L 1923.471815 942.177732 
L 1928.578636 944.744036 
L 1933.685457 947.31034 
L 1938.792278 949.876644 
L 1943.899099 952.442948 
L 1949.00592 955.009252 
L 1954.112741 957.575556 
L 1959.219562 960.14186 
L 1964.326384 962.708164 
L 1969.433205 965.274468 
L 1974.540026 967.840772 
L 1979.646847 970.407076 
L 1984.753668 972.97338 
L 1989.860489 975.539684 
L 1994.96731 978.105988 
L 2000.074131 980.672292 
L 2005.180952 983.238596 
L 2010.287773 985.8049 
L 2015.394595 988.371204 
L 2020.501416 990.937508 
L 2025.608237 993.503812 
L 2030.715058 996.070116 
L 2035.821879 998.63642 
L 2040.9287 1001.202724 
L 2046.035521 1003.769028 
L 2051.142342 1006.335332 
L 2056.249163 1008.901636 
L 2061.355985 1011.46794 
L 2066.462806 1014.034244 
L 2071.569627 1016.600548 
L 2076.676448 1019.166852 
L 2081.783269 1021.733156 
L 2086.89009 1024.29946 
L 2091.996911 1026.865764 
L 2097.103732 1029.432068 
L 2102.210553 1031.998372 
L 2107.317375 1034.564676 
L 2112.424196 1037.13098 
L 2117.531017 1039.697284 
L 2122.637838 1042.263588 
L 2127.744659 1044.829892 
L 2132.85148 1047.396196 
L 2137.958301 1049.9625 
L 2143.065122 1052.528804 
L 2148.171943 1055.095108 
L 2153.278764 1057.661413 
L 2158.385586 1060.227717 
L 2163.492407 1062.794021 
L 2168.599228 1065.360325 
L 2173.706049 1067.926629 
L 2178.81287 1070.492933 
L 2183.919691 1073.059237 
L 2189.026512 1075.625541 
L 2194.133333 1078.191845 
L 2199.240154 1080.758149 
L 2204.346976 1083.324453 
L 2209.453797 1085.890757 
L 2214.560618 1088.457061 
L 2219.667439 1091.023365 
L 2224.77426 1093.589669 
L 2229.881081 1096.155973 
L 2234.987902 1098.722277 
L 2240.094723 1101.288581 
L 2245.201544 1103.854885 
L 2250.308366 1106.421189 
L 2255.415187 1108.987493 
L 2260.522008 1111.553797 
L 2265.628829 1114.120101 
L 2270.73565 1116.686405 
L 2275.842471 1119.252709 
L 2280.949292 1121.819013 
L 2286.056113 1124.385317 
L 2291.162934 1126.951621 
L 2296.269755 1129.517925 
L 2301.376577 1132.084229 
L 2306.483398 1134.650533 
L 2311.590219 1137.216837 
L 2316.69704 1139.783141 
L 2321.803861 1142.349445 
L 2326.910682 1144.915749 
L 2332.017503 1147.482053 
L 2337.124324 1150.048357 
L 2342.231145 1152.614661 
L 2347.337967 1155.180965 
L 2352.444788 1157.747269 
L 2357.551609 1160.313573 
L 2362.65843 1162.879877 
L 2367.765251 1165.446181 
L 2372.872072 1168.012485 
L 2377.978893 1170.578789 
L 2383.085714 1173.145093 
L 2388.192535 1175.711397 
L 2393.299356 1178.277701 
L 2398.406178 1180.844005 
L 2403.512999 1183.410309 
L 2408.61982 1185.976613 
L 2413.726641 1188.542917 
L 2418.833462 1191.109221 
L 2423.940283 1193.675526 
L 2429.047104 1196.24183 
L 2434.153925 1198.808134 
L 2439.260746 1201.374438 
L 2444.367568 1203.940742 
L 2449.474389 1206.507046 
L 2454.58121 1209.07335 
L 2459.688031 1211.639654 
L 2464.794852 1214.205958 
L 2469.901673 1216.772262 
L 2475.008494 1219.338566 
L 2480.115315 1221.90487 
L 2485.222136 1224.471174 
L 2490.328958 1227.037478 
L 2495.435779 1229.603782 
L 2500.5426 1232.170086 
L 2505.649421 1234.73639 
L 2510.756242 1237.302694 
L 2515.863063 1239.868998 
L 2520.969884 1242.435302 
L 2526.076705 1245.001606 
L 2531.183526 1247.56791 
L 2536.290347 1250.134214 
L 2541.397169 1252.700518 
L 2546.50399 1255.266822 
L 2551.610811 1257.833126 
L 2556.717632 1260.39943 
L 2561.824453 1262.965734 
L 2566.931274 1265.532038 
L 2572.038095 1268.098342 
L 2577.144916 1270.664646 
L 2582.251737 1273.23095 
L 2587.358559 1275.797254 
L 2592.46538 1278.363558 
L 2597.572201 1280.929862 
L 2602.679022 1283.496166 
L 2607.785843 1286.06247 
L 2612.892664 1288.628774 
L 2617.999485 1291.195078 
L 2623.106306 1293.761382 
L 2628.213127 1296.327686 
L 2633.319949 1298.89399 
L 2638.42677 1301.460294 
L 2643.533591 1304.026598 
L 2648.640412 1306.592902 
L 2653.747233 1309.159206 
L 2658.854054 1311.72551 
L 2663.960875 1314.291814 
L 2669.067696 1316.858118 
L 2674.174517 1319.424422 
L 2679.281338 1321.990726 
L 2684.38816 1324.55703 
L 2689.494981 1327.123334 
L 2694.601802 1329.689638 
L 2699.708623 1332.255943 
L 2704.815444 1334.822247 
L 2709.922265 1337.388551 
L 2715.029086 1339.954855 
L 2720.135907 1342.521159 
L 2725.242728 1345.087463 
L 2730.34955 1347.653767 
L 2735.456371 1350.220071 
L 2740.563192 1352.786375 
L 2745.670013 1355.352679 
L 2750.776834 1357.918983 
L 2755.883655 1360.485287 
L 2760.990476 1363.051591 
L 2766.097297 1365.617895 
L 2771.204118 1368.184199 
L 2776.31094 1370.750503 
L 2781.417761 1373.316807 
L 2786.524582 1375.883111 
L 2791.631403 1378.449415 
L 2796.738224 1381.015719 
L 2801.845045 1383.582023 
L 2806.951866 1386.148327 
L 2812.058687 1388.714631 
L 2817.165508 1391.280935 
L 2822.272329 1393.847239 
L 2827.379151 1396.413543 
L 2832.485972 1398.979847 
L 2837.592793 1401.546151 
L 2842.699614 1404.112455 
L 2847.806435 1406.678759 
L 2852.913256 1409.245063 
L 2858.020077 1411.811367 
L 2863.126898 1414.377671 
L 2868.233719 1416.943975 
L 2873.340541 1419.510279 
L 2878.447362 1422.076583 
L 2883.554183 1424.642887 
L 2888.661004 1427.209191 
L 2893.767825 1429.775495 
L 2898.874646 1432.341799 
L 2903.981467 1434.908103 
L 2909.088288 1437.474407 
L 2914.195109 1440.040711 
L 2919.301931 1442.607015 
L 2924.408752 1445.173319 
L 2929.515573 1447.739623 
L 2934.622394 1450.305927 
L 2939.729215 1452.872231 
L 2944.836036 1455.438535 
L 2949.942857 1458.004839 
L 2949.942857 1458.004839 
L 2949.942857 1458.004839 
L 2944.836036 1455.438535 
L 2939.729215 1452.872231 
L 2934.622394 1450.305927 
L 2929.515573 1447.739623 
L 2924.408752 1445.173319 
L 2919.301931 1442.607015 
L 2914.195109 1440.040711 
L 2909.088288 1437.474407 
L 2903.981467 1434.908103 
L 2898.874646 1432.341799 
L 2893.767825 1429.775495 
L 2888.661004 1427.209191 
L 2883.554183 1424.642887 
L 2878.447362 1422.076583 
L 2873.340541 1419.510279 
L 2868.233719 1416.943975 
L 2863.126898 1414.377671 
L 2858.020077 1411.811367 
L 2852.913256 1409.245063 
L 2847.806435 1406.678759 
L 2842.699614 1404.112455 
L 2837.592793 1401.546151 
L 2832.485972 1398.979847 
L 2827.379151 1396.413543 
L 2822.272329 1393.847239 
L 2817.165508 1391.280935 
L 2812.058687 1388.714631 
L 2806.951866 1386.148327 
L 2801.845045 1383.582023 
L 2796.738224 1381.015719 
L 2791.631403 1378.449415 
L 2786.524582 1375.883111 
L 2781.417761 1373.316807 
L 2776.31094 1370.750503 
L 2771.204118 1368.184199 
L 2766.097297 1365.617895 
L 2760.990476 1363.051591 
L 2755.883655 1360.485287 
L 2750.776834 1357.918983 
L 2745.670013 1355.352679 
L 2740.563192 1352.786375 
L 2735.456371 1350.220071 
L 2730.34955 1347.653767 
L 2725.242728 1345.087463 
L 2720.135907 1342.521159 
L 2715.029086 1339.954855 
L 2709.922265 1337.388551 
L 2704.815444 1334.822247 
L 2699.708623 1332.255943 
L 2694.601802 1329.689638 
L 2689.494981 1327.123334 
L 2684.38816 1324.55703 
L 2679.281338 1321.990726 
L 2674.174517 1319.424422 
L 2669.067696 1316.858118 
L 2663.960875 1314.291814 
L 2658.854054 1311.72551 
L 2653.747233 1309.159206 
L 2648.640412 1306.592902 
L 2643.533591 1304.026598 
L 2638.42677 1301.460294 
L 2633.319949 1298.89399 
L 2628.213127 1296.327686 
L 2623.106306 1293.761382 
L 2617.999485 1291.195078 
L 2612.892664 1288.628774 
L 2607.785843 1286.06247 
L 2602.679022 1283.496166 
L 2597.572201 1280.929862 
L 2592.46538 1278.363558 
L 2587.358559 1275.797254 
L 2582.251737 1273.23095 
L 2577.144916 1270.664646 
L 2572.038095 1268.098342 
L 2566.931274 1265.532038 
L 2561.824453 1262.965734 
L 2556.717632 1260.39943 
L 2551.610811 1257.833126 
L 2546.50399 1255.266822 
L 2541.397169 1252.700518 
L 2536.290347 1250.134214 
L 2531.183526 1247.56791 
L 2526.076705 1245.001606 
L 2520.969884 1242.435302 
L 2515.863063 1239.868998 
L 2510.756242 1237.302694 
L 2505.649421 1234.73639 
L 2500.5426 1232.170086 
L 2495.435779 1229.603782 
L 2490.328958 1227.037478 
L 2485.222136 1224.471174 
L 2480.115315 1221.90487 
L 2475.008494 1219.338566 
L 2469.901673 1216.772262 
L 2464.794852 1214.205958 
L 2459.688031 1211.639654 
L 2454.58121 1209.07335 
L 2449.474389 1206.507046 
L 2444.367568 1203.940742 
L 2439.260746 1201.374438 
L 2434.153925 1198.808134 
L 2429.047104 1196.24183 
L 2423.940283 1193.675526 
L 2418.833462 1191.109221 
L 2413.726641 1188.542917 
L 2408.61982 1185.976613 
L 2403.512999 1183.410309 
L 2398.406178 1180.844005 
L 2393.299356 1178.277701 
L 2388.192535 1175.711397 
L 2383.085714 1173.145093 
L 2377.978893 1170.578789 
L 2372.872072 1168.012485 
L 2367.765251 1165.446181 
L 2362.65843 1162.879877 
L 2357.551609 1160.313573 
L 2352.444788 1157.747269 
L 2347.337967 1155.180965 
L 2342.231145 1152.614661 
L 2337.124324 1150.048357 
L 2332.017503 1147.482053 
L 2326.910682 1144.915749 
L 2321.803861 1142.349445 
L 2316.69704 1139.783141 
L 2311.590219 1137.216837 
L 2306.483398 1134.650533 
L 2301.376577 1132.084229 
L 2296.269755 1129.517925 
L 2291.162934 1126.951621 
L 2286.056113 1124.385317 
L 2280.949292 1121.819013 
L 2275.842471 1119.252709 
L 2270.73565 1116.686405 
L 2265.628829 1114.120101 
L 2260.522008 1111.553797 
L 2255.415187 1108.987493 
L 2250.308366 1106.421189 
L 2245.201544 1103.854885 
L 2240.094723 1101.288581 
L 2234.987902 1098.722277 
L 2229.881081 1096.155973 
L 2224.77426 1093.589669 
L 2219.667439 1091.023365 
L 2214.560618 1088.457061 
L 2209.453797 1085.890757 
L 2204.346976 1083.324453 
L 2199.240154 1080.758149 
L 2194.133333 1078.191845 
L 2189.026512 1075.625541 
L 2183.919691 1073.059237 
L 2178.81287 1070.492933 
L 2173.706049 1067.926629 
L 2168.599228 1065.360325 
L 2163.492407 1062.794021 
L 2158.385586 1060.227717 
L 2153.278764 1057.661413 
L 2148.171943 1055.095108 
L 2143.065122 1052.528804 
L 2137.958301 1049.9625 
L 2132.85148 1047.396196 
L 2127.744659 1044.829892 
L 2122.637838 1042.263588 
L 2117.531017 1039.697284 
L 2112.424196 1037.13098 
L 2107.317375 1034.564676 
L 2102.210553 1031.998372 
L 2097.103732 1029.432068 
L 2091.996911 1026.865764 
L 2086.89009 1024.29946 
L 2081.783269 1021.733156 
L 2076.676448 1019.166852 
L 2071.569627 1016.600548 
L 2066.462806 1014.034244 
L 2061.355985 1011.46794 
L 2056.249163 1008.901636 
L 2051.142342 1006.335332 
L 2046.035521 1003.769028 
L 2040.9287 1001.202724 
L 2035.821879 998.63642 
L 2030.715058 996.070116 
L 2025.608237 993.503812 
L 2020.501416 990.937508 
L 2015.394595 988.371204 
L 2010.287773 985.8049 
L 2005.180952 983.238596 
L 2000.074131 980.672292 
L 1994.96731 978.105988 
L 1989.860489 975.539684 
L 1984.753668 972.97338 
L 1979.646847 970.407076 
L 1974.540026 967.840772 
L 1969.433205 965.274468 
L 1964.326384 962.708164 
L 1959.219562 960.14186 
L 1954.112741 957.575556 
L 1949.00592 955.009252 
L 1943.899099 952.442948 
L 1938.792278 949.876644 
L 1933.685457 947.31034 
L 1928.578636 944.744036 
L 1923.471815 942.177732 
L 1918.364994 939.611428 
L 1913.258172 937.045124 
L 1908.151351 934.47882 
L 1903.04453 931.912516 
L 1897.937709 929.346212 
L 1892.830888 926.779908 
L 1887.724067 924.213604 
L 1882.617246 921.6473 
L 1877.510425 919.080995 
L 1872.403604 916.514691 
L 1867.296782 913.948387 
L 1862.189961 911.382083 
L 1857.08314 908.815779 
L 1851.976319 906.249475 
L 1846.869498 903.683171 
L 1841.762677 901.116867 
L 1836.655856 898.550563 
L 1831.549035 895.984259 
L 1826.442214 893.417955 
L 1821.335393 890.851651 
L 1816.228571 888.285347 
L 1811.12175 885.719043 
L 1806.014929 883.152739 
L 1800.908108 880.586435 
L 1795.801287 878.020131 
L 1790.694466 875.453827 
L 1785.587645 872.887523 
L 1780.480824 870.321219 
L 1775.374003 867.754915 
L 1770.267181 865.188611 
L 1765.16036 862.622307 
L 1760.053539 860.056003 
L 1754.946718 857.489699 
L 1749.839897 854.923395 
L 1744.733076 852.357091 
L 1739.626255 849.790787 
L 1734.519434 847.224483 
L 1729.412613 844.658179 
L 1724.305792 842.091875 
L 1719.19897 839.525571 
L 1714.092149 836.959267 
L 1708.985328 834.392963 
L 1703.878507 831.826659 
L 1698.771686 829.260355 
L 1693.664865 826.694051 
L 1688.558044 824.127747 
L 1683.451223 821.561443 
L 1678.344402 818.995139 
L 1673.23758 816.428835 
L 1668.130759 813.862531 
L 1663.023938 811.296227 
L 1657.917117 808.729923 
L 1652.810296 806.163619 
L 1647.703475 803.597315 
L 1642.596654 801.031011 
L 1637.489833 798.464707 
L 1632.383012 795.898403 
L 1627.27619 793.332099 
L 1622.169369 790.765795 
L 1617.062548 788.199491 
L 1611.955727 785.633187 
L 1606.848906 783.066883 
L 1601.742085 780.500578 
L 1596.635264 777.934274 
L 1591.528443 775.36797 
L 1586.421622 772.801666 
L 1581.314801 770.235362 
L 1576.207979 767.669058 
L 1571.101158 765.102754 
L 1565.994337 762.53645 
L 1560.887516 759.970146 
L 1555.780695 757.403842 
L 1550.673874 754.837538 
L 1545.567053 752.271234 
L 1540.460232 749.70493 
L 1535.353411 747.138626 
L 1530.246589 744.572322 
L 1525.139768 742.006018 
L 1520.032947 739.439714 
L 1514.926126 736.87341 
L 1509.819305 734.307106 
L 1504.712484 731.740802 
L 1499.605663 729.174498 
L 1494.498842 726.608194 
L 1489.392021 724.04189 
L 1484.285199 721.475586 
L 1479.178378 718.909282 
L 1474.071557 716.342978 
L 1468.964736 713.776674 
L 1463.857915 711.21037 
L 1458.751094 708.644066 
L 1453.644273 706.077762 
L 1448.537452 703.511458 
L 1443.430631 700.945154 
L 1438.32381 698.37885 
L 1433.216988 695.812546 
L 1428.110167 693.246242 
L 1423.003346 690.679938 
L 1417.896525 688.113634 
L 1412.789704 685.54733 
L 1407.682883 682.981026 
L 1402.576062 680.414722 
L 1397.469241 677.848418 
L 1392.36242 675.282114 
L 1387.255598 672.71581 
L 1382.148777 670.149506 
L 1377.041956 667.583202 
L 1371.935135 665.016898 
L 1366.828314 662.450594 
L 1361.721493 659.88429 
L 1356.614672 657.317986 
L 1351.507851 654.751682 
L 1346.40103 652.185378 
L 1341.294208 649.619074 
L 1336.187387 647.05277 
L 1331.080566 644.486465 
L 1325.973745 641.920161 
L 1320.866924 639.353857 
L 1315.760103 636.787553 
L 1310.653282 634.221249 
L 1305.546461 631.654945 
L 1300.43964 629.088641 
L 1295.332819 626.522337 
L 1290.225997 623.956033 
L 1285.119176 621.389729 
L 1280.012355 618.823425 
L 1274.905534 616.257121 
L 1269.798713 613.690817 
L 1264.691892 611.124513 
L 1259.585071 608.558209 
L 1254.47825 605.991905 
L 1249.371429 603.425601 
L 1244.264607 600.859297 
L 1239.157786 598.292993 
L 1234.050965 595.726689 
L 1228.944144 593.160385 
L 1223.837323 590.594081 
L 1218.730502 588.027777 
L 1213.623681 585.461473 
L 1208.51686 582.895169 
L 1203.410039 580.328865 
L 1198.303218 577.762561 
L 1193.196396 575.196257 
L 1188.089575 572.629953 
L 1182.982754 570.063649 
L 1177.875933 567.497345 
L 1172.769112 564.931041 
L 1167.662291 562.364737 
L 1162.55547 559.798433 
L 1157.448649 557.232129 
L 1152.341828 554.665825 
L 1147.235006 552.099521 
L 1142.128185 549.533217 
L 1137.021364 546.966913 
L 1131.914543 544.400609 
L 1126.807722 541.834305 
L 1121.700901 539.268001 
L 1116.59408 536.701697 
L 1111.487259 534.135393 
L 1106.380438 531.569089 
L 1101.273616 529.002785 
L 1096.166795 526.436481 
L 1091.059974 523.870177 
L 1085.953153 521.303873 
L 1080.846332 518.737569 
L 1075.739511 516.171265 
L 1070.63269 513.604961 
L 1065.525869 511.038657 
L 1060.419048 508.472353 
L 1055.312227 505.906048 
L 1050.205405 503.339744 
L 1045.098584 500.77344 
L 1039.991763 498.207136 
L 1034.884942 495.640832 
L 1029.778121 493.074528 
L 1024.6713 490.508224 
L 1019.564479 487.94192 
L 1014.457658 485.375616 
L 1009.350837 482.809312 
L 1004.244015 480.243008 
L 999.137194 477.676704 
L 994.030373 475.1104 
L 988.923552 472.544096 
L 983.816731 469.977792 
L 978.70991 467.411488 
L 973.603089 464.845184 
L 968.496268 462.27888 
L 963.389447 459.712576 
L 958.282625 457.146272 
L 953.175804 454.579968 
L 948.068983 452.013664 
L 942.962162 449.44736 
L 937.855341 446.881056 
L 932.74852 444.314752 
L 927.641699 441.748448 
L 922.534878 439.182144 
L 917.428057 436.61584 
L 912.321236 434.049536 
L 907.214414 431.483232 
L 902.107593 428.916928 
L 897.000772 426.350624 
L 891.893951 423.78432 
L 886.78713 421.218016 
L 881.680309 418.651712 
L 876.573488 416.085408 
L 871.466667 413.519104 
L 866.359846 410.9528 
L 861.253024 408.386496 
L 856.146203 405.820192 
L 851.039382 403.253888 
L 845.932561 400.687584 
L 840.82574 398.12128 
L 835.718919 395.554976 
L 830.612098 392.988672 
L 825.505277 391.419082 
L 820.398456 390.903573 
L 815.291634 390.388065 
L 810.184813 389.872557 
L 805.077992 389.357048 
L 799.971171 388.84154 
L 794.86435 388.326032 
L 789.757529 387.810523 
L 784.650708 387.295015 
L 779.543887 386.779507 
L 774.437066 386.263999 
L 769.330245 385.74849 
L 764.223423 385.232982 
L 759.116602 384.717474 
L 754.009781 384.201965 
L 748.90296 383.686457 
L 743.796139 383.170949 
L 738.689318 382.65544 
L 733.582497 382.139932 
L 728.475676 381.624424 
L 723.368855 381.108915 
L 718.262033 380.593407 
L 713.155212 380.077899 
L 708.048391 379.562391 
L 702.94157 379.046882 
L 697.834749 378.531374 
L 692.727928 378.015866 
L 687.621107 377.500357 
L 682.514286 376.984849 
L 677.407465 376.469341 
L 672.300644 377.17789 
L 667.193822 378.863411 
L 662.087001 380.548932 
L 656.98018 382.234452 
L 651.873359 383.919973 
L 646.766538 385.605494 
L 641.659717 387.291015 
L 636.552896 388.976535 
L 631.446075 390.662056 
L 626.339254 392.347577 
L 621.232432 394.033098 
L 616.125611 395.718618 
L 611.01879 397.404139 
L 605.911969 399.08966 
L 600.805148 400.775181 
L 595.698327 402.460701 
L 590.591506 404.146222 
L 585.484685 405.831743 
L 580.377864 407.517264 
L 575.271042 409.202785 
L 570.164221 410.888305 
L 565.0574 412.573826 
L 559.950579 414.259347 
L 554.843758 415.944868 
L 549.736937 417.630388 
L 544.630116 419.315909 
L 539.523295 421.00143 
L 534.416474 422.686951 
L 529.309653 424.372471 
L 524.202831 426.057992 
L 519.09601 427.743513 
L 513.989189 429.429034 
L 508.882368 431.114554 
L 503.775547 432.800075 
L 498.668726 434.485596 
L 493.561905 436.171117 
L 488.455084 437.856637 
L 483.348263 439.542158 
L 478.241441 441.227679 
L 473.13462 442.9132 
L 468.027799 444.59872 
L 462.920978 446.284241 
L 457.814157 447.969762 
L 452.707336 449.655283 
L 447.600515 451.340803 
L 442.493694 453.026324 
L 437.386873 454.711845 
L 432.280051 456.397366 
L 427.17323 458.082886 
L 422.066409 459.768407 
L 416.959588 461.453928 
L 411.852767 463.139449 
L 406.745946 464.824969 
L 401.639125 466.51049 
L 396.532304 468.196011 
L 391.425483 469.881532 
L 386.318662 471.567053 
L 381.21184 473.252573 
L 376.105019 474.938094 
L 370.998198 476.623615 
L 365.891377 478.309136 
L 360.784556 479.994656 
L 355.677735 481.680177 
L 350.570914 483.365698 
L 345.464093 485.051219 
L 340.357272 486.736739 
L 335.25045 488.42226 
L 330.143629 490.107781 
L 325.036808 491.793302 
L 319.929987 493.478822 
L 314.823166 495.164343 
L 309.716345 496.849864 
L 304.609524 498.535385 
L 299.502703 500.220905 
L 294.395882 501.906426 
L 289.28906 503.591947 
L 284.182239 505.277468 
L 279.075418 506.962988 
L 273.968597 508.648509 
L 268.861776 510.33403 
L 263.754955 512.019551 
L 258.648134 513.705071 
L 253.541313 515.390592 
L 248.434492 517.076113 
L 243.327671 518.761634 
L 238.220849 520.447154 
L 233.114028 522.132675 
L 228.007207 523.818196 
L 222.900386 525.503717 
L 217.793565 527.189237 
L 212.686744 528.874758 
L 207.579923 530.560279 
L 202.473102 532.2458 
L 197.366281 533.931321 
L 192.259459 535.616841 
L 187.152638 537.302362 
L 182.045817 538.987883 
L 176.938996 540.673404 
L 171.832175 542.358924 
L 166.725354 544.044445 
L 161.618533 545.729966 
L 156.511712 547.415487 
L 151.404891 549.101007 
L 146.298069 550.786528 
L 141.191248 552.472049 
L 136.084427 554.15757 
L 130.977606 555.84309 
L 125.870785 557.528611 
L 120.763964 559.214132 
L 115.657143 560.899653 
L 110.550322 562.585173 
L 105.443501 564.270694 
L 100.33668 565.956215 
L 95.229858 567.641736 
L 90.123037 569.327256 
L 85.016216 571.012777 
L 79.909395 572.698298 
L 74.802574 574.383819 
L 69.695753 576.069339 
L 64.588932 577.75486 
L 59.482111 579.440381 
L 54.37529 581.125902 
L 49.268468 582.811422 
L 44.161647 584.496943 
L 39.054826 586.182464 
L 33.948005 587.867985 
L 28.841184 589.553505 
L 23.734363 591.239026 
L 18.627542 592.924547 
L 13.520721 594.610068 
L 8.4139 596.295588 
L 3.307079 597.981109 
L -1.799743 599.66663 
L -6.906564 601.352151 
L -12.013385 603.037672 
L -17.120206 604.723192 
L -22.227027 606.408713 
L -27.333848 608.094234 
L -32.440669 609.779755 
L -37.54749 611.465275 
L -42.654311 613.150796 
L -47.761133 614.836317 
L -52.867954 616.521838 
L -57.974775 618.207358 
L -63.081596 619.892879 
L -68.188417 621.5784 
L -73.295238 623.263921 
L -78.402059 624.949441 
L -83.50888 626.634962 
L -88.615701 628.320483 
L -93.722523 630.006004 
L -98.829344 631.691524 
L -103.936165 633.377045 
L -109.042986 635.062566 
L -114.149807 636.748087 
L -119.256628 638.433607 
L -124.363449 640.119128 
L -129.47027 641.804649 
L -134.577091 643.49017 
L -139.683912 645.17569 
L -144.790734 646.861211 
L -149.897555 648.546732 
L -155.004376 650.232253 
L -160.111197 651.917773 
L -165.218018 653.603294 
L -170.324839 655.288815 
L -175.43166 656.974336 
L -180.538481 658.659856 
L -185.645302 660.345377 
L -190.752124 662.030898 
L -195.858945 663.716419 
L -200.965766 665.40194 
L -206.072587 667.08746 
L -211.179408 668.772981 
L -216.286229 670.458502 
L -221.39305 672.144023 
L -226.499871 673.829543 
L -231.606692 675.515064 
L -236.713514 677.200585 
L -241.820335 678.886106 
L -246.927156 680.571626 
L -252.033977 682.257147 
L -257.140798 683.942668 
L -262.247619 685.628189 
L -267.35444 687.313709 
L -272.461261 688.99923 
L -277.568082 690.684751 
L -282.674903 692.370272 
L -287.781725 694.055792 
L -292.888546 695.741313 
L -297.995367 697.426834 
L -303.102188 699.112355 
L -308.209009 700.797875 
L -313.31583 702.483396 
L -318.422651 704.168917 
L -323.529472 705.854438 
L -328.636293 707.539958 
L -333.743115 709.225479 
L -338.849936 710.911 
L -343.956757 712.596521 
L -349.063578 714.282041 
L -354.170399 715.967562 
L -359.27722 717.653083 
L -364.384041 719.338604 
L -369.490862 721.024124 
L -374.597683 722.709645 
L -379.704505 724.395166 
L -384.811326 726.080687 
L -389.918147 727.766207 
L -395.024968 729.451728 
L -400.131789 731.137249 
L -405.23861 732.82277 
L -410.345431 734.508291 
L -415.452252 736.193811 
L -420.559073 737.879332 
L -425.665894 739.564853 
L -430.772716 741.250374 
L -435.879537 742.935894 
L -440.986358 744.621415 
L -446.093179 746.306936 
L -451.2 747.992457 
L -456.306821 749.677977 
L -461.413642 751.363498 
L -466.520463 753.049019 
L -471.627284 754.73454 
L -476.734106 756.42006 
L -481.840927 758.105581 
L -486.947748 759.791102 
L -492.054569 761.476623 
L -497.16139 763.162143 
L -502.268211 764.847664 
L -507.375032 766.533185 
L -512.481853 768.218706 
L -517.588674 769.904226 
L -522.695495 771.589747 
L -527.802317 773.275268 
L -532.909138 774.960789 
L -538.015959 776.646309 
L -543.12278 778.33183 
L -548.229601 780.017351 
L -553.336422 781.702872 
L -558.443243 783.388392 
L -563.550064 785.073913 
L -568.656885 786.759434 
L -573.763707 788.444955 
L -578.870528 790.130475 
L -583.977349 791.815996 
L -589.08417 793.501517 
L -594.190991 795.187038 
L -599.297812 796.872559 
L -604.404633 798.558079 
L -609.511454 800.2436 
L -614.618275 801.929121 
L -619.725097 803.614642 
L -624.831918 805.300162 
L -629.938739 806.985683 
L -635.04556 808.671204 
L -640.152381 810.356725 
L -645.259202 812.042245 
L -650.366023 813.727766 
L -655.472844 815.413287 
L -660.579665 817.098808 
L -665.686486 818.784328 
L -670.793308 820.469849 
L -675.900129 822.15537 
L -681.00695 823.840891 
L -686.113771 825.526411 
L -691.220592 827.211932 
L -696.327413 828.897453 
L -701.434234 830.582974 
L -706.541055 832.268494 
L -711.647876 833.954015 
L -716.754698 835.639536 
L -721.861519 837.325057 
L -726.96834 839.010577 
L -732.075161 840.696098 
L -737.181982 842.381619 
L -742.288803 844.06714 
L -747.395624 845.75266 
L -752.502445 847.438181 
L -757.609266 849.123702 
L -762.716088 850.809223 
L -767.822909 852.494743 
L -772.92973 854.180264 
L -778.036551 855.865785 
L -783.143372 857.551306 
L -788.250193 859.236827 
L -793.357014 860.922347 
L -798.463835 862.607868 
L -803.570656 864.293389 
L -808.677477 865.97891 
L -813.784299 867.66443 
L -818.89112 869.349951 
L -823.997941 871.035472 
L -829.104762 872.720993 
L -834.211583 874.406513 
L -839.318404 876.092034 
L -844.425225 877.777555 
L -849.532046 879.463076 
L -854.638867 881.148596 
L -859.745689 882.834117 
L -864.85251 884.519638 
L -869.959331 886.205159 
L -875.066152 887.890679 
L -880.172973 889.5762 
L -885.279794 891.261721 
L -890.386615 892.947242 
L -895.493436 894.632762 
L -900.600257 896.318283 
L -905.707079 898.003804 
L -910.8139 899.689325 
L -915.920721 901.374845 
L -921.027542 903.060366 
L -926.134363 904.745887 
L -931.241184 906.431408 
L -936.348005 908.116928 
L -941.454826 909.802449 
L -946.561647 911.48797 
L -951.668468 913.173491 
L -956.77529 914.859011 
L -961.882111 916.544532 
L -966.988932 918.230053 
L -972.095753 919.915574 
L -977.202574 921.601094 
L -982.309395 923.286615 
L -987.416216 924.972136 
L -992.523037 926.657657 
L -997.629858 928.343178 
L -1002.73668 930.028698 
L -1007.843501 931.714219 
L -1012.950322 933.39974 
L -1018.057143 935.085261 
L -1023.163964 936.770781 
L -1028.270785 938.456302 
L -1033.377606 940.141823 
L -1038.484427 941.827344 
L -1043.591248 943.512864 
L -1048.698069 945.198385 
L -1053.804891 946.883906 
L -1058.911712 948.569427 
L -1064.018533 950.254947 
L -1069.125354 951.940468 
L -1074.232175 953.625989 
L -1079.338996 955.31151 
L -1084.445817 956.99703 
L -1089.552638 958.682551 
L -1094.659459 960.368072 
L -1099.766281 962.053593 
L -1104.873102 963.739113 
L -1109.979923 965.424634 
L -1115.086744 967.110155 
L -1120.193565 968.795676 
L -1125.300386 970.481196 
L -1130.407207 972.166717 
L -1135.514028 973.852238 
L -1140.620849 975.537759 
L -1145.727671 977.223279 
L -1150.834492 978.9088 
L -1155.941313 980.594321 
L -1161.048134 982.279842 
L -1166.154955 983.965362 
L -1171.261776 985.650883 
L -1176.368597 987.336404 
L -1181.475418 989.021925 
L -1186.582239 990.707446 
L -1191.68906 992.392966 
L -1196.795882 994.078487 
L -1201.902703 995.764008 
L -1207.009524 997.449529 
L -1212.116345 999.135049 
L -1217.223166 1000.82057 
L -1222.329987 1002.506091 
L -1227.436808 1004.191612 
L -1232.543629 1005.877132 
L -1237.65045 1007.562653 
L -1242.757272 1009.248174 
L -1247.864093 1010.933695 
L -1252.970914 1012.619215 
L -1258.077735 1014.304736 
L -1263.184556 1015.990257 
L -1268.291377 1017.675778 
L -1273.398198 1019.361298 
L -1278.505019 1021.046819 
L -1283.61184 1022.73234 
L -1288.718662 1024.417861 
L -1293.825483 1026.103381 
L -1298.932304 1027.788902 
L -1304.039125 1029.474423 
L -1309.145946 1031.159944 
L -1314.252767 1032.845464 
L -1319.359588 1034.530985 
L -1324.466409 1036.216506 
L -1329.57323 1037.902027 
L -1334.680051 1039.587547 
L -1339.786873 1041.273068 
L -1344.893694 1042.958589 
L -1350.000515 1044.64411 
L -1355.107336 1046.32963 
L -1360.214157 1048.015151 
L -1365.320978 1049.700672 
L -1370.427799 1051.386193 
L -1375.53462 1053.071714 
L -1380.641441 1054.757234 
L -1385.748263 1056.442755 
L -1390.855084 1058.128276 
L -1395.961905 1059.813797 
L -1401.068726 1061.499317 
L -1406.175547 1063.184838 
L -1411.282368 1064.870359 
L -1416.389189 1066.55588 
L -1421.49601 1068.2414 
L -1426.602831 1069.926921 
L -1431.709653 1071.612442 
L -1436.816474 1073.297963 
L -1441.923295 1074.983483 
L -1447.030116 1076.669004 
L -1452.136937 1078.354525 
L -1457.243758 1080.040046 
L -1462.350579 1081.725566 
L -1467.4574 1083.411087 
L -1472.564221 1085.096608 
L -1477.671042 1086.782129 
L -1482.777864 1088.467649 
L -1487.884685 1090.15317 
L -1492.991506 1091.838691 
L -1498.098327 1093.524212 
L -1503.205148 1095.209732 
L -1508.311969 1096.895253 
L -1513.41879 1098.580774 
L -1518.525611 1100.266295 
L -1523.632432 1101.951815 
L -1528.739254 1103.637336 
L -1533.846075 1105.322857 
L -1538.952896 1107.008378 
L -1544.059717 1108.693898 
L -1549.166538 1110.379419 
L -1554.273359 1112.06494 
L -1559.38018 1113.750461 
L -1564.487001 1115.435981 
L -1569.593822 1117.121502 
L -1574.700644 1118.807023 
L -1579.807465 1120.492544 
L -1584.914286 1122.178065 
L -1590.021107 1123.863585 
L -1595.127928 1125.549106 
L -1600.234749 1127.234627 
L -1605.34157 1128.920148 
L -1610.448391 1130.605668 
L -1615.555212 1132.291189 
L -1620.662033 1133.97671 
L -1625.768855 1135.662231 
L -1630.875676 1137.347751 
L -1635.982497 1139.033272 
L -1641.089318 1140.718793 
L -1646.196139 1142.404314 
L -1651.30296 1144.089834 
L -1656.409781 1145.775355 
L -1661.516602 1147.460876 
L -1666.623423 1149.146397 
L -1671.730245 1150.831917 
L -1676.837066 1152.517438 
L -1681.943887 1154.202959 
L -1687.050708 1155.88848 
L -1692.157529 1157.574 
L -1697.26435 1159.259521 
L -1702.371171 1160.945042 
L -1707.477992 1162.630563 
L -1712.584813 1164.316083 
L -1717.691634 1166.001604 
L -1722.798456 1167.687125 
L -1727.905277 1169.372646 
L -1733.012098 1171.058166 
L -1738.118919 1172.743687 
L -1743.22574 1174.429208 
L -1748.332561 1176.114729 
L -1753.439382 1177.800249 
L -1758.546203 1179.48577 
L -1763.653024 1181.171291 
L -1768.759846 1182.856812 
L -1773.866667 1184.542333 
L -1778.973488 1186.227853 
L -1784.080309 1187.913374 
L -1789.18713 1189.598895 
L -1794.293951 1191.284416 
L -1799.400772 1192.969936 
L -1804.507593 1194.655457 
L -1809.614414 1196.340978 
L -1814.721236 1198.026499 
L -1819.828057 1199.712019 
L -1824.934878 1201.39754 
L -1830.041699 1203.083061 
L -1835.14852 1204.768582 
L -1840.255341 1206.454102 
L -1845.362162 1208.139623 
L -1850.468983 1209.825144 
L -1855.575804 1211.510665 
L -1860.682625 1213.196185 
L -1865.789447 1214.881706 
L -1870.896268 1216.567227 
L -1876.003089 1218.252748 
L -1881.10991 1219.938268 
L -1886.216731 1221.623789 
L -1891.323552 1223.30931 
L -1896.430373 1224.994831 
L -1901.537194 1226.680351 
L -1906.644015 1228.365872 
L -1911.750837 1230.051393 
L -1916.857658 1231.736914 
L -1921.964479 1233.422434 
L -1927.0713 1235.107955 
L -1932.178121 1236.793476 
L -1937.284942 1238.478997 
L -1942.391763 1240.164517 
L -1947.498584 1241.850038 
L -1952.605405 1243.535559 
L -1957.712227 1245.22108 
L -1962.819048 1246.9066 
L -1967.925869 1248.592121 
L -1973.03269 1250.277642 
L -1978.139511 1251.963163 
L -1983.246332 1253.648684 
L -1988.353153 1255.334204 
L -1993.459974 1257.019725 
L -1998.566795 1258.705246 
L -2003.673616 1260.390767 
L -2008.780438 1262.076287 
L -2013.887259 1263.761808 
L -2018.99408 1265.447329 
L -2024.100901 1267.13285 
L -2029.207722 1268.81837 
L -2034.314543 1270.503891 
L -2039.421364 1272.189412 
L -2044.528185 1273.874933 
L -2049.635006 1275.560453 
L -2054.741828 1277.245974 
L -2059.848649 1278.931495 
L -2064.95547 1280.617016 
L -2070.062291 1282.302536 
L -2075.169112 1283.988057 
L -2080.275933 1285.673578 
L -2085.382754 1287.359099 
L -2090.489575 1289.044619 
L -2095.596396 1290.73014 
L -2100.703218 1292.415661 
L -2105.810039 1294.101182 
L -2110.91686 1295.786702 
L -2116.023681 1297.472223 
L -2121.130502 1299.157744 
L -2126.237323 1300.843265 
L -2131.344144 1302.528785 
L -2136.450965 1304.214306 
L -2141.557786 1305.899827 
L -2146.664607 1307.585348 
L -2151.771429 1309.270868 
z
" clip-path="url(#p7cf423e6fa)" style="fill: #808080; fill-opacity: 0.5; stroke: #808080; stroke-opacity: 0.5"/>
   </g>
   <g id="matplotlib.axis_1">
    <g id="xtick_1">
     <g id="line2d_1">
      <path d="M 144 576.72 
L 144 77.76 
" clip-path="url(#p7cf423e6fa)" style="fill: none; stroke-dasharray: 5.12,1.28,0.8,1.28; stroke-dashoffset: 0; stroke: #008000; stroke-width: 0.8"/>
     </g>
     <g id="line2d_2">
      <defs>
       <path id="m7f18930b0e" d="M 0 0 
L 0 3.5 
" style="stroke: #000000; stroke-width: 0.8"/>
      </defs>
      <g>
       <use xlink:href="#m7f18930b0e" x="144" y="576.72" style="stroke: #000000; stroke-width: 0.8"/>
      </g>
     </g>
     <g id="text_1">
      <!-- 2 -->
      <g transform="translate(136.628906 591.318438) scale(0.1 -0.1)">
       <defs>
        <path id="DejaVuSans-2212" d="M 678 2272 
L 4684 2272 
L 4684 1741 
L 678 1741 
L 678 2272 
z
" transform="scale(0.015625)"/>
        <path id="DejaVuSans-32" d="M 1228 531 
L 3431 531 
L 3431 0 
L 469 0 
L 469 531 
Q 828 903 1448 1529 
Q 2069 2156 2228 2338 
Q 2531 2678 2651 2914 
Q 2772 3150 2772 3378 
Q 2772 3750 2511 3984 
Q 2250 4219 1831 4219 
Q 1534 4219 1204 4116 
Q 875 4013 500 3803 
L 500 4441 
Q 881 4594 1212 4672 
Q 1544 4750 1819 4750 
Q 2544 4750 2975 4387 
Q 3406 4025 3406 3419 
Q 3406 3131 3298 2873 
Q 3191 2616 2906 2266 
Q 2828 2175 2409 1742 
Q 1991 1309 1228 531 
z
" transform="scale(0.015625)"/>
       </defs>
       <use xlink:href="#DejaVuSans-2212"/>
       <use xlink:href="#DejaVuSans-32" x="83.789062"/>
      </g>
     </g>
    </g>
    <g id="xtick_2">
     <g id="line2d_3">
      <path d="M 271.542857 576.72 
L 271.542857 77.76 
" clip-path="url(#p7cf423e6fa)" style="fill: none; stroke-dasharray: 5.12,1.28,0.8,1.28; stroke-dashoffset: 0; stroke: #008000; stroke-width: 0.8"/>
     </g>
     <g id="line2d_4">
      <g>
       <use xlink:href="#m7f18930b0e" x="271.542857" y="576.72" style="stroke: #000000; stroke-width: 0.8"/>
      </g>
     </g>
     <g id="text_2">
      <!-- 1 -->
      <g transform="translate(264.171763 591.318438) scale(0.1 -0.1)">
       <defs>
        <path id="DejaVuSans-31" d="M 794 531 
L 1825 531 
L 1825 4091 
L 703 3866 
L 703 4441 
L 1819 4666 
L 2450 4666 
L 2450 531 
L 3481 531 
L 3481 0 
L 794 0 
L 794 531 
z
" transform="scale(0.015625)"/>
       </defs>
       <use xlink:href="#DejaVuSans-2212"/>
       <use xlink:href="#DejaVuSans-31" x="83.789062"/>
      </g>
     </g>
    </g>
    <g id="xtick_3">
     <g id="line2d_5">
      <path d="M 399.085714 576.72 
L 399.085714 77.76 
" clip-path="url(#p7cf423e6fa)" style="fill: none; stroke-dasharray: 5.12,1.28,0.8,1.28; stroke-dashoffset: 0; stroke: #008000; stroke-width: 0.8"/>
     </g>
     <g id="line2d_6">
      <g>
       <use xlink:href="#m7f18930b0e" x="399.085714" y="576.72" style="stroke: #000000; stroke-width: 0.8"/>
      </g>
     </g>
     <g id="text_3">
      <!-- 0 -->
      <g transform="translate(395.904464 591.318438) scale(0.1 -0.1)">
       <defs>
        <path id="DejaVuSans-30" d="M 2034 4250 
Q 1547 4250 1301 3770 
Q 1056 3291 1056 2328 
Q 1056 1369 1301 889 
Q 1547 409 2034 409 
Q 2525 409 2770 889 
Q 3016 1369 3016 2328 
Q 3016 3291 2770 3770 
Q 2525 4250 2034 4250 
z
M 2034 4750 
Q 2819 4750 3233 4129 
Q 3647 3509 3647 2328 
Q 3647 1150 3233 529 
Q 2819 -91 2034 -91 
Q 1250 -91 836 529 
Q 422 1150 422 2328 
Q 422 3509 836 4129 
Q 1250 4750 2034 4750 
z
" transform="scale(0.015625)"/>
       </defs>
       <use xlink:href="#DejaVuSans-30"/>
      </g>
     </g>
    </g>
    <g id="xtick_4">
     <g id="line2d_7">
      <path d="M 526.628571 576.72 
L 526.628571 77.76 
" clip-path="url(#p7cf423e6fa)" style="fill: none; stroke-dasharray: 5.12,1.28,0.8,1.28; stroke-dashoffset: 0; stroke: #008000; stroke-width: 0.8"/>
     </g>
     <g id="line2d_8">
      <g>
       <use xlink:href="#m7f18930b0e" x="526.628571" y="576.72" style="stroke: #000000; stroke-width: 0.8"/>
      </g>
     </g>
     <g id="text_4">
      <!-- 1 -->
      <g transform="translate(523.447321 591.318438) scale(0.1 -0.1)">
       <use xlink:href="#DejaVuSans-31"/>
      </g>
     </g>
    </g>
    <g id="xtick_5">
     <g id="line2d_9">
      <path d="M 654.171429 576.72 
L 654.171429 77.76 
" clip-path="url(#p7cf423e6fa)" style="fill: none; stroke-dasharray: 5.12,1.28,0.8,1.28; stroke-dashoffset: 0; stroke: #008000; stroke-width: 0.8"/>
     </g>
     <g id="line2d_10">
      <g>
       <use xlink:href="#m7f18930b0e" x="654.171429" y="576.72" style="stroke: #000000; stroke-width: 0.8"/>
      </g>
     </g>
     <g id="text_5">
      <!-- 2 -->
      <g transform="translate(650.990179 591.318438) scale(0.1 -0.1)">
       <use xlink:href="#DejaVuSans-32"/>
      </g>
     </g>
    </g>
    <g id="xtick_6">
     <g id="line2d_11">
      <path d="M 781.714286 576.72 
L 781.714286 77.76 
" clip-path="url(#p7cf423e6fa)" style="fill: none; stroke-dasharray: 5.12,1.28,0.8,1.28; stroke-dashoffset: 0; stroke: #008000; stroke-width: 0.8"/>
     </g>
     <g id="line2d_12">
      <g>
       <use xlink:href="#m7f18930b0e" x="781.714286" y="576.72" style="stroke: #000000; stroke-width: 0.8"/>
      </g>
     </g>
     <g id="text_6">
      <!-- 3 -->
      <g transform="translate(778.533036 591.318438) scale(0.1 -0.1)">
       <defs>
        <path id="DejaVuSans-33" d="M 2597 2516 
Q 3050 2419 3304 2112 
Q 3559 1806 3559 1356 
Q 3559 666 3084 287 
Q 2609 -91 1734 -91 
Q 1441 -91 1130 -33 
Q 819 25 488 141 
L 488 750 
Q 750 597 1062 519 
Q 1375 441 1716 441 
Q 2309 441 2620 675 
Q 2931 909 2931 1356 
Q 2931 1769 2642 2001 
Q 2353 2234 1838 2234 
L 1294 2234 
L 1294 2753 
L 1863 2753 
Q 2328 2753 2575 2939 
Q 2822 3125 2822 3475 
Q 2822 3834 2567 4026 
Q 2313 4219 1838 4219 
Q 1578 4219 1281 4162 
Q 984 4106 628 3988 
L 628 4550 
Q 988 4650 1302 4700 
Q 1616 4750 1894 4750 
Q 2613 4750 3031 4423 
Q 3450 4097 3450 3541 
Q 3450 3153 3228 2886 
Q 3006 2619 2597 2516 
z
" transform="scale(0.015625)"/>
       </defs>
       <use xlink:href="#DejaVuSans-33"/>
      </g>
     </g>
    </g>
    <g id="xtick_7">
     <g id="line2d_13">
      <path d="M 909.257143 576.72 
L 909.257143 77.76 
" clip-path="url(#p7cf423e6fa)" style="fill: none; stroke-dasharray: 5.12,1.28,0.8,1.28; stroke-dashoffset: 0; stroke: #008000; stroke-width: 0.8"/>
     </g>
     <g id="line2d_14">
      <g>
       <use xlink:href="#m7f18930b0e" x="909.257143" y="576.72" style="stroke: #000000; stroke-width: 0.8"/>
      </g>
     </g>
     <g id="text_7">
      <!-- 4 -->
      <g transform="translate(906.075893 591.318438) scale(0.1 -0.1)">
       <defs>
        <path id="DejaVuSans-34" d="M 2419 4116 
L 825 1625 
L 2419 1625 
L 2419 4116 
z
M 2253 4666 
L 3047 4666 
L 3047 1625 
L 3713 1625 
L 3713 1100 
L 3047 1100 
L 3047 0 
L 2419 0 
L 2419 1100 
L 313 1100 
L 313 1709 
L 2253 4666 
z
" transform="scale(0.015625)"/>
       </defs>
       <use xlink:href="#DejaVuSans-34"/>
      </g>
     </g>
    </g>
    <g id="xtick_8">
     <g id="line2d_15">
      <path d="M 1036.8 576.72 
L 1036.8 77.76 
" clip-path="url(#p7cf423e6fa)" style="fill: none; stroke-dasharray: 5.12,1.28,0.8,1.28; stroke-dashoffset: 0; stroke: #008000; stroke-width: 0.8"/>
     </g>
     <g id="line2d_16">
      <g>
       <use xlink:href="#m7f18930b0e" x="1036.8" y="576.72" style="stroke: #000000; stroke-width: 0.8"/>
      </g>
     </g>
     <g id="text_8">
      <!-- 5 -->
      <g transform="translate(1033.61875 591.318438) scale(0.1 -0.1)">
       <defs>
        <path id="DejaVuSans-35" d="M 691 4666 
L 3169 4666 
L 3169 4134 
L 1269 4134 
L 1269 2991 
Q 1406 3038 1543 3061 
Q 1681 3084 1819 3084 
Q 2600 3084 3056 2656 
Q 3513 2228 3513 1497 
Q 3513 744 3044 326 
Q 2575 -91 1722 -91 
Q 1428 -91 1123 -41 
Q 819 9 494 109 
L 494 744 
Q 775 591 1075 516 
Q 1375 441 1709 441 
Q 2250 441 2565 725 
Q 2881 1009 2881 1497 
Q 2881 1984 2565 2268 
Q 2250 2553 1709 2553 
Q 1456 2553 1204 2497 
Q 953 2441 691 2322 
L 691 4666 
z
" transform="scale(0.015625)"/>
       </defs>
       <use xlink:href="#DejaVuSans-35"/>
      </g>
     </g>
    </g>
    <g id="text_9">
     <!-- $x_1$ -->
     <g transform="translate(585.05 604.996562) scale(0.1 -0.1)">
      <defs>
       <path id="DejaVuSans-Oblique-78" d="M 3841 3500 
L 2234 1784 
L 3219 0 
L 2559 0 
L 1819 1388 
L 531 0 
L -166 0 
L 1556 1844 
L 641 3500 
L 1300 3500 
L 1972 2234 
L 3144 3500 
L 3841 3500 
z
" transform="scale(0.015625)"/>
      </defs>
      <use xlink:href="#DejaVuSans-Oblique-78" transform="translate(0 0.3125)"/>
      <use xlink:href="#DejaVuSans-31" transform="translate(59.179688 -16.09375) scale(0.7)"/>
     </g>
    </g>
   </g>
   <g id="matplotlib.axis_2">
    <g id="ytick_1">
     <g id="line2d_17">
      <path d="M 144 538.338462 
L 1036.8 538.338462 
" clip-path="url(#p7cf423e6fa)" style="fill: none; stroke-dasharray: 5.12,1.28,0.8,1.28; stroke-dashoffset: 0; stroke: #008000; stroke-width: 0.8"/>
     </g>
     <g id="line2d_18">
      <defs>
       <path id="ma94da15824" d="M 0 0 
L -3.5 0 
" style="stroke: #000000; stroke-width: 0.8"/>
      </defs>
      <g>
       <use xlink:href="#ma94da15824" x="144" y="538.338462" style="stroke: #000000; stroke-width: 0.8"/>
      </g>
     </g>
     <g id="text_10">
      <!-- 6 -->
      <g transform="translate(130.6375 542.13768) scale(0.1 -0.1)">
       <defs>
        <path id="DejaVuSans-36" d="M 2113 2584 
Q 1688 2584 1439 2293 
Q 1191 2003 1191 1497 
Q 1191 994 1439 701 
Q 1688 409 2113 409 
Q 2538 409 2786 701 
Q 3034 994 3034 1497 
Q 3034 2003 2786 2293 
Q 2538 2584 2113 2584 
z
M 3366 4563 
L 3366 3988 
Q 3128 4100 2886 4159 
Q 2644 4219 2406 4219 
Q 1781 4219 1451 3797 
Q 1122 3375 1075 2522 
Q 1259 2794 1537 2939 
Q 1816 3084 2150 3084 
Q 2853 3084 3261 2657 
Q 3669 2231 3669 1497 
Q 3669 778 3244 343 
Q 2819 -91 2113 -91 
Q 1303 -91 875 529 
Q 447 1150 447 2328 
Q 447 3434 972 4092 
Q 1497 4750 2381 4750 
Q 2619 4750 2861 4703 
Q 3103 4656 3366 4563 
z
" transform="scale(0.015625)"/>
       </defs>
       <use xlink:href="#DejaVuSans-36"/>
      </g>
     </g>
    </g>
    <g id="ytick_2">
     <g id="line2d_19">
      <path d="M 144 461.575385 
L 1036.8 461.575385 
" clip-path="url(#p7cf423e6fa)" style="fill: none; stroke-dasharray: 5.12,1.28,0.8,1.28; stroke-dashoffset: 0; stroke: #008000; stroke-width: 0.8"/>
     </g>
     <g id="line2d_20">
      <g>
       <use xlink:href="#ma94da15824" x="144" y="461.575385" style="stroke: #000000; stroke-width: 0.8"/>
      </g>
     </g>
     <g id="text_11">
      <!-- 8 -->
      <g transform="translate(130.6375 465.374603) scale(0.1 -0.1)">
       <defs>
        <path id="DejaVuSans-38" d="M 2034 2216 
Q 1584 2216 1326 1975 
Q 1069 1734 1069 1313 
Q 1069 891 1326 650 
Q 1584 409 2034 409 
Q 2484 409 2743 651 
Q 3003 894 3003 1313 
Q 3003 1734 2745 1975 
Q 2488 2216 2034 2216 
z
M 1403 2484 
Q 997 2584 770 2862 
Q 544 3141 544 3541 
Q 544 4100 942 4425 
Q 1341 4750 2034 4750 
Q 2731 4750 3128 4425 
Q 3525 4100 3525 3541 
Q 3525 3141 3298 2862 
Q 3072 2584 2669 2484 
Q 3125 2378 3379 2068 
Q 3634 1759 3634 1313 
Q 3634 634 3220 271 
Q 2806 -91 2034 -91 
Q 1263 -91 848 271 
Q 434 634 434 1313 
Q 434 1759 690 2068 
Q 947 2378 1403 2484 
z
M 1172 3481 
Q 1172 3119 1398 2916 
Q 1625 2713 2034 2713 
Q 2441 2713 2670 2916 
Q 2900 3119 2900 3481 
Q 2900 3844 2670 4047 
Q 2441 4250 2034 4250 
Q 1625 4250 1398 4047 
Q 1172 3844 1172 3481 
z
" transform="scale(0.015625)"/>
       </defs>
       <use xlink:href="#DejaVuSans-38"/>
      </g>
     </g>
    </g>
    <g id="ytick_3">
     <g id="line2d_21">
      <path d="M 144 384.812308 
L 1036.8 384.812308 
" clip-path="url(#p7cf423e6fa)" style="fill: none; stroke-dasharray: 5.12,1.28,0.8,1.28; stroke-dashoffset: 0; stroke: #008000; stroke-width: 0.8"/>
     </g>
     <g id="line2d_22">
      <g>
       <use xlink:href="#ma94da15824" x="144" y="384.812308" style="stroke: #000000; stroke-width: 0.8"/>
      </g>
     </g>
     <g id="text_12">
      <!-- 10 -->
      <g transform="translate(124.275 388.611526) scale(0.1 -0.1)">
       <use xlink:href="#DejaVuSans-31"/>
       <use xlink:href="#DejaVuSans-30" x="63.623047"/>
      </g>
     </g>
    </g>
    <g id="ytick_4">
     <g id="line2d_23">
      <path d="M 144 308.049231 
L 1036.8 308.049231 
" clip-path="url(#p7cf423e6fa)" style="fill: none; stroke-dasharray: 5.12,1.28,0.8,1.28; stroke-dashoffset: 0; stroke: #008000; stroke-width: 0.8"/>
     </g>
     <g id="line2d_24">
      <g>
       <use xlink:href="#ma94da15824" x="144" y="308.049231" style="stroke: #000000; stroke-width: 0.8"/>
      </g>
     </g>
     <g id="text_13">
      <!-- 12 -->
      <g transform="translate(124.275 311.84845) scale(0.1 -0.1)">
       <use xlink:href="#DejaVuSans-31"/>
       <use xlink:href="#DejaVuSans-32" x="63.623047"/>
      </g>
     </g>
    </g>
    <g id="ytick_5">
     <g id="line2d_25">
      <path d="M 144 231.286154 
L 1036.8 231.286154 
" clip-path="url(#p7cf423e6fa)" style="fill: none; stroke-dasharray: 5.12,1.28,0.8,1.28; stroke-dashoffset: 0; stroke: #008000; stroke-width: 0.8"/>
     </g>
     <g id="line2d_26">
      <g>
       <use xlink:href="#ma94da15824" x="144" y="231.286154" style="stroke: #000000; stroke-width: 0.8"/>
      </g>
     </g>
     <g id="text_14">
      <!-- 14 -->
      <g transform="translate(124.275 235.085373) scale(0.1 -0.1)">
       <use xlink:href="#DejaVuSans-31"/>
       <use xlink:href="#DejaVuSans-34" x="63.623047"/>
      </g>
     </g>
    </g>
    <g id="ytick_6">
     <g id="line2d_27">
      <path d="M 144 154.523077 
L 1036.8 154.523077 
" clip-path="url(#p7cf423e6fa)" style="fill: none; stroke-dasharray: 5.12,1.28,0.8,1.28; stroke-dashoffset: 0; stroke: #008000; stroke-width: 0.8"/>
     </g>
     <g id="line2d_28">
      <g>
       <use xlink:href="#ma94da15824" x="144" y="154.523077" style="stroke: #000000; stroke-width: 0.8"/>
      </g>
     </g>
     <g id="text_15">
      <!-- 16 -->
      <g transform="translate(124.275 158.322296) scale(0.1 -0.1)">
       <use xlink:href="#DejaVuSans-31"/>
       <use xlink:href="#DejaVuSans-36" x="63.623047"/>
      </g>
     </g>
    </g>
    <g id="ytick_7">
     <g id="line2d_29">
      <path d="M 144 77.76 
L 1036.8 77.76 
" clip-path="url(#p7cf423e6fa)" style="fill: none; stroke-dasharray: 5.12,1.28,0.8,1.28; stroke-dashoffset: 0; stroke: #008000; stroke-width: 0.8"/>
     </g>
     <g id="line2d_30">
      <g>
       <use xlink:href="#ma94da15824" x="144" y="77.76" style="stroke: #000000; stroke-width: 0.8"/>
      </g>
     </g>
     <g id="text_16">
      <!-- 18 -->
      <g transform="translate(124.275 81.559219) scale(0.1 -0.1)">
       <use xlink:href="#DejaVuSans-31"/>
       <use xlink:href="#DejaVuSans-38" x="63.623047"/>
      </g>
     </g>
    </g>
    <g id="text_17">
     <!-- $x_2$ -->
     <g transform="translate(118.195312 332.59) rotate(-90) scale(0.1 -0.1)">
      <use xlink:href="#DejaVuSans-Oblique-78" transform="translate(0 0.3125)"/>
      <use xlink:href="#DejaVuSans-32" transform="translate(59.179688 -16.09375) scale(0.7)"/>
     </g>
    </g>
   </g>
   <g id="line2d_31">
    <path d="M -1 599.402673 
L 1153 218.521707 
L 1153 218.521707 
" clip-path="url(#p7cf423e6fa)" style="fill: none; stroke-dasharray: 9.6,2.4,1.5,2.4; stroke-dashoffset: 0; stroke: #00bfbf; stroke-width: 1.5"/>
   </g>
   <g id="line2d_32">
    <path d="M -1 307.987467 
L 1153 424.478052 
L 1153 424.478052 
" clip-path="url(#p7cf423e6fa)" style="fill: none; stroke-dasharray: 5.55,2.4; stroke-dashoffset: 0; stroke: #bfbf00; stroke-width: 1.5"/>
   </g>
   <g id="line2d_33">
    <path d="M 46.593661 -1 
L 1153 554.996573 
L 1153 554.996573 
" clip-path="url(#p7cf423e6fa)" style="fill: none; stroke-dasharray: 1.5,2.475; stroke-dashoffset: 0; stroke: #bf00bf; stroke-width: 1.5"/>
   </g>
   <g id="line2d_34">
    <path d="M 675.140699 376.240522 
" clip-path="url(#p7cf423e6fa)" style="fill: none; stroke: #bf00bf; stroke-width: 1.5; stroke-linecap: square"/>
    <defs>
     <path id="ma8067059bf" d="M 0 3 
C 0.795609 3 1.55874 2.683901 2.12132 2.12132 
C 2.683901 1.55874 3 0.795609 3 0 
C 3 -0.795609 2.683901 -1.55874 2.12132 -2.12132 
C 1.55874 -2.683901 0.795609 -3 0 -3 
C -0.795609 -3 -1.55874 -2.683901 -2.12132 -2.12132 
C -2.683901 -1.55874 -3 -0.795609 -3 0 
C -3 0.795609 -2.683901 1.55874 -2.12132 2.12132 
C -1.55874 2.683901 -0.795609 3 0 3 
z
" style="stroke: #bf00bf"/>
    </defs>
    <g clip-path="url(#p7cf423e6fa)">
     <use xlink:href="#ma8067059bf" x="675.140699" y="376.240522" style="fill: #bf00bf; stroke: #bf00bf"/>
    </g>
   </g>
   <g id="line2d_35">
    <path d="M 748.86365 351.908053 
" clip-path="url(#p7cf423e6fa)" style="fill: none; stroke: #ff0000; stroke-width: 1.5; stroke-linecap: square"/>
    <defs>
     <path id="m3d9feff587" d="M 0 3 
C 0.795609 3 1.55874 2.683901 2.12132 2.12132 
C 2.683901 1.55874 3 0.795609 3 0 
C 3 -0.795609 2.683901 -1.55874 2.12132 -2.12132 
C 1.55874 -2.683901 0.795609 -3 0 -3 
C -0.795609 -3 -1.55874 -2.683901 -2.12132 -2.12132 
C -2.683901 -1.55874 -3 -0.795609 -3 0 
C -3 0.795609 -2.683901 1.55874 -2.12132 2.12132 
C -1.55874 2.683901 -0.795609 3 0 3 
z
" style="stroke: #ff0000"/>
    </defs>
    <g clip-path="url(#p7cf423e6fa)">
     <use xlink:href="#m3d9feff587" x="748.86365" y="351.908053" style="fill: #ff0000; stroke: #ff0000"/>
    </g>
   </g>
   <g id="line2d_36">
    <path d="M 827.987259 391.669625 
" clip-path="url(#p7cf423e6fa)" style="fill: none; stroke: #00bfbf; stroke-width: 1.5; stroke-linecap: square"/>
    <defs>
     <path id="m9244413c51" d="M 0 3 
C 0.795609 3 1.55874 2.683901 2.12132 2.12132 
C 2.683901 1.55874 3 0.795609 3 0 
C 3 -0.795609 2.683901 -1.55874 2.12132 -2.12132 
C 1.55874 -2.683901 0.795609 -3 0 -3 
C -0.795609 -3 -1.55874 -2.683901 -2.12132 -2.12132 
C -2.683901 -1.55874 -3 -0.795609 -3 0 
C -3 0.795609 -2.683901 1.55874 -2.12132 2.12132 
C -1.55874 2.683901 -0.795609 3 0 3 
z
" style="stroke: #00bfbf"/>
    </defs>
    <g clip-path="url(#p7cf423e6fa)">
     <use xlink:href="#m9244413c51" x="827.987259" y="391.669625" style="fill: #00bfbf; stroke: #00bfbf"/>
    </g>
   </g>
   <g id="patch_3">
    <path d="M 144 576.72 
L 144 77.76 
" style="fill: none; stroke: #000000; stroke-width: 0.8; stroke-linejoin: miter; stroke-linecap: square"/>
   </g>
   <g id="patch_4">
    <path d="M 1036.8 576.72 
L 1036.8 77.76 
" style="fill: none; stroke: #000000; stroke-width: 0.8; stroke-linejoin: miter; stroke-linecap: square"/>
   </g>
   <g id="patch_5">
    <path d="M 144 576.72 
L 1036.8 576.72 
" style="fill: none; stroke: #000000; stroke-width: 0.8; stroke-linejoin: miter; stroke-linecap: square"/>
   </g>
   <g id="patch_6">
    <path d="M 144 77.76 
L 1036.8 77.76 
" style="fill: none; stroke: #000000; stroke-width: 0.8; stroke-linejoin: miter; stroke-linecap: square"/>
   </g>
   <g id="text_18">
    <!-- $-10.2x_1 + 9.3x_2 = 73$ -->
    <g transform="translate(271.542857 499.956923) rotate(-18.26562) scale(0.1 -0.1)">
     <defs>
      <path id="DejaVuSans-2e" d="M 684 794 
L 1344 794 
L 1344 0 
L 684 0 
L 684 794 
z
" transform="scale(0.015625)"/>
      <path id="DejaVuSans-2b" d="M 2944 4013 
L 2944 2272 
L 4684 2272 
L 4684 1741 
L 2944 1741 
L 2944 0 
L 2419 0 
L 2419 1741 
L 678 1741 
L 678 2272 
L 2419 2272 
L 2419 4013 
L 2944 4013 
z
" transform="scale(0.015625)"/>
      <path id="DejaVuSans-39" d="M 703 97 
L 703 672 
Q 941 559 1184 500 
Q 1428 441 1663 441 
Q 2288 441 2617 861 
Q 2947 1281 2994 2138 
Q 2813 1869 2534 1725 
Q 2256 1581 1919 1581 
Q 1219 1581 811 2004 
Q 403 2428 403 3163 
Q 403 3881 828 4315 
Q 1253 4750 1959 4750 
Q 2769 4750 3195 4129 
Q 3622 3509 3622 2328 
Q 3622 1225 3098 567 
Q 2575 -91 1691 -91 
Q 1453 -91 1209 -44 
Q 966 3 703 97 
z
M 1959 2075 
Q 2384 2075 2632 2365 
Q 2881 2656 2881 3163 
Q 2881 3666 2632 3958 
Q 2384 4250 1959 4250 
Q 1534 4250 1286 3958 
Q 1038 3666 1038 3163 
Q 1038 2656 1286 2365 
Q 1534 2075 1959 2075 
z
" transform="scale(0.015625)"/>
      <path id="DejaVuSans-3d" d="M 678 2906 
L 4684 2906 
L 4684 2381 
L 678 2381 
L 678 2906 
z
M 678 1631 
L 4684 1631 
L 4684 1100 
L 678 1100 
L 678 1631 
z
" transform="scale(0.015625)"/>
      <path id="DejaVuSans-37" d="M 525 4666 
L 3525 4666 
L 3525 4397 
L 1831 0 
L 1172 0 
L 2766 4134 
L 525 4134 
L 525 4666 
z
" transform="scale(0.015625)"/>
     </defs>
     <use xlink:href="#DejaVuSans-2212" transform="translate(0 0.78125)"/>
     <use xlink:href="#DejaVuSans-31" transform="translate(83.789062 0.78125)"/>
     <use xlink:href="#DejaVuSans-30" transform="translate(147.412109 0.78125)"/>
     <use xlink:href="#DejaVuSans-2e" transform="translate(211.035156 0.78125)"/>
     <use xlink:href="#DejaVuSans-32" transform="translate(237.322266 0.78125)"/>
     <use xlink:href="#DejaVuSans-Oblique-78" transform="translate(300.945312 0.78125)"/>
     <use xlink:href="#DejaVuSans-31" transform="translate(360.125 -15.625) scale(0.7)"/>
     <use xlink:href="#DejaVuSans-2b" transform="translate(426.87793 0.78125)"/>
     <use xlink:href="#DejaVuSans-39" transform="translate(530.149414 0.78125)"/>
     <use xlink:href="#DejaVuSans-2e" transform="translate(593.772461 0.78125)"/>
     <use xlink:href="#DejaVuSans-33" transform="translate(625.55957 0.78125)"/>
     <use xlink:href="#DejaVuSans-Oblique-78" transform="translate(689.182617 0.78125)"/>
     <use xlink:href="#DejaVuSans-32" transform="translate(748.362305 -15.625) scale(0.7)"/>
     <use xlink:href="#DejaVuSans-3d" transform="translate(815.115234 0.78125)"/>
     <use xlink:href="#DejaVuSans-37" transform="translate(918.386719 0.78125)"/>
     <use xlink:href="#DejaVuSans-33" transform="translate(982.009766 0.78125)"/>
    </g>
   </g>
   <g id="text_19">
    <!-- $5.3x_1 + 15.8x_2 = 173$ -->
    <g transform="translate(909.257143 392.488615) rotate(5.764199) scale(0.1 -0.1)">
     <use xlink:href="#DejaVuSans-35" transform="translate(0 0.78125)"/>
     <use xlink:href="#DejaVuSans-2e" transform="translate(63.623047 0.78125)"/>
     <use xlink:href="#DejaVuSans-33" transform="translate(95.410156 0.78125)"/>
     <use xlink:href="#DejaVuSans-Oblique-78" transform="translate(159.033203 0.78125)"/>
     <use xlink:href="#DejaVuSans-31" transform="translate(218.212891 -15.625) scale(0.7)"/>
     <use xlink:href="#DejaVuSans-2b" transform="translate(284.96582 0.78125)"/>
     <use xlink:href="#DejaVuSans-31" transform="translate(388.237305 0.78125)"/>
     <use xlink:href="#DejaVuSans-35" transform="translate(451.860352 0.78125)"/>
     <use xlink:href="#DejaVuSans-2e" transform="translate(515.483398 0.78125)"/>
     <use xlink:href="#DejaVuSans-38" transform="translate(544.645508 0.78125)"/>
     <use xlink:href="#DejaVuSans-Oblique-78" transform="translate(608.268555 0.78125)"/>
     <use xlink:href="#DejaVuSans-32" transform="translate(667.448242 -15.625) scale(0.7)"/>
     <use xlink:href="#DejaVuSans-3d" transform="translate(734.201172 0.78125)"/>
     <use xlink:href="#DejaVuSans-31" transform="translate(837.472656 0.78125)"/>
     <use xlink:href="#DejaVuSans-37" transform="translate(901.095703 0.78125)"/>
     <use xlink:href="#DejaVuSans-33" transform="translate(964.71875 0.78125)"/>
    </g>
   </g>
   <g id="text_20">
    <!-- $17.2x_1 + 10.3x_2 = 159$ -->
    <g transform="translate(526.628571 231.286154) rotate(26.68066) scale(0.1 -0.1)">
     <use xlink:href="#DejaVuSans-31" transform="translate(0 0.78125)"/>
     <use xlink:href="#DejaVuSans-37" transform="translate(63.623047 0.78125)"/>
     <use xlink:href="#DejaVuSans-2e" transform="translate(127.246094 0.78125)"/>
     <use xlink:href="#DejaVuSans-32" transform="translate(153.533203 0.78125)"/>
     <use xlink:href="#DejaVuSans-Oblique-78" transform="translate(217.15625 0.78125)"/>
     <use xlink:href="#DejaVuSans-31" transform="translate(276.335938 -15.625) scale(0.7)"/>
     <use xlink:href="#DejaVuSans-2b" transform="translate(343.088867 0.78125)"/>
     <use xlink:href="#DejaVuSans-31" transform="translate(446.360352 0.78125)"/>
     <use xlink:href="#DejaVuSans-30" transform="translate(509.983398 0.78125)"/>
     <use xlink:href="#DejaVuSans-2e" transform="translate(573.606445 0.78125)"/>
     <use xlink:href="#DejaVuSans-33" transform="translate(605.393555 0.78125)"/>
     <use xlink:href="#DejaVuSans-Oblique-78" transform="translate(669.016602 0.78125)"/>
     <use xlink:href="#DejaVuSans-32" transform="translate(728.196289 -15.625) scale(0.7)"/>
     <use xlink:href="#DejaVuSans-3d" transform="translate(794.949219 0.78125)"/>
     <use xlink:href="#DejaVuSans-31" transform="translate(898.220703 0.78125)"/>
     <use xlink:href="#DejaVuSans-35" transform="translate(961.84375 0.78125)"/>
     <use xlink:href="#DejaVuSans-39" transform="translate(1019.966797 0.78125)"/>
    </g>
   </g>
   <g id="patch_7">
    <path d="M 528.122879 402.969672 
Q 600.646974 389.784145 672.071067 376.798608 
" style="fill: none; stroke: #000000; stroke-linecap: round"/>
    <path d="M 667.777828 375.546372 
L 672.071067 376.798608 
L 668.493334 379.481858 
" style="fill: none; stroke: #000000; stroke-linecap: round"/>
   </g>
   <g id="text_21">
    <!-- The intersection point of -->
    <g transform="translate(401.56183 411.996034) scale(0.1 -0.1)">
     <defs>
      <path id="DejaVuSans-54" d="M -19 4666 
L 3928 4666 
L 3928 4134 
L 2272 4134 
L 2272 0 
L 1638 0 
L 1638 4134 
L -19 4134 
L -19 4666 
z
" transform="scale(0.015625)"/>
      <path id="DejaVuSans-68" d="M 3513 2113 
L 3513 0 
L 2938 0 
L 2938 2094 
Q 2938 2591 2744 2837 
Q 2550 3084 2163 3084 
Q 1697 3084 1428 2787 
Q 1159 2491 1159 1978 
L 1159 0 
L 581 0 
L 581 4863 
L 1159 4863 
L 1159 2956 
Q 1366 3272 1645 3428 
Q 1925 3584 2291 3584 
Q 2894 3584 3203 3211 
Q 3513 2838 3513 2113 
z
" transform="scale(0.015625)"/>
      <path id="DejaVuSans-65" d="M 3597 1894 
L 3597 1613 
L 953 1613 
Q 991 1019 1311 708 
Q 1631 397 2203 397 
Q 2534 397 2845 478 
Q 3156 559 3463 722 
L 3463 178 
Q 3153 47 2828 -22 
Q 2503 -91 2169 -91 
Q 1331 -91 842 396 
Q 353 884 353 1716 
Q 353 2575 817 3079 
Q 1281 3584 2069 3584 
Q 2775 3584 3186 3129 
Q 3597 2675 3597 1894 
z
M 3022 2063 
Q 3016 2534 2758 2815 
Q 2500 3097 2075 3097 
Q 1594 3097 1305 2825 
Q 1016 2553 972 2059 
L 3022 2063 
z
" transform="scale(0.015625)"/>
      <path id="DejaVuSans-20" transform="scale(0.015625)"/>
      <path id="DejaVuSans-69" d="M 603 3500 
L 1178 3500 
L 1178 0 
L 603 0 
L 603 3500 
z
M 603 4863 
L 1178 4863 
L 1178 4134 
L 603 4134 
L 603 4863 
z
" transform="scale(0.015625)"/>
      <path id="DejaVuSans-6e" d="M 3513 2113 
L 3513 0 
L 2938 0 
L 2938 2094 
Q 2938 2591 2744 2837 
Q 2550 3084 2163 3084 
Q 1697 3084 1428 2787 
Q 1159 2491 1159 1978 
L 1159 0 
L 581 0 
L 581 3500 
L 1159 3500 
L 1159 2956 
Q 1366 3272 1645 3428 
Q 1925 3584 2291 3584 
Q 2894 3584 3203 3211 
Q 3513 2838 3513 2113 
z
" transform="scale(0.015625)"/>
      <path id="DejaVuSans-74" d="M 1172 4494 
L 1172 3500 
L 2356 3500 
L 2356 3053 
L 1172 3053 
L 1172 1153 
Q 1172 725 1289 603 
Q 1406 481 1766 481 
L 2356 481 
L 2356 0 
L 1766 0 
Q 1100 0 847 248 
Q 594 497 594 1153 
L 594 3053 
L 172 3053 
L 172 3500 
L 594 3500 
L 594 4494 
L 1172 4494 
z
" transform="scale(0.015625)"/>
      <path id="DejaVuSans-72" d="M 2631 2963 
Q 2534 3019 2420 3045 
Q 2306 3072 2169 3072 
Q 1681 3072 1420 2755 
Q 1159 2438 1159 1844 
L 1159 0 
L 581 0 
L 581 3500 
L 1159 3500 
L 1159 2956 
Q 1341 3275 1631 3429 
Q 1922 3584 2338 3584 
Q 2397 3584 2469 3576 
Q 2541 3569 2628 3553 
L 2631 2963 
z
" transform="scale(0.015625)"/>
      <path id="DejaVuSans-73" d="M 2834 3397 
L 2834 2853 
Q 2591 2978 2328 3040 
Q 2066 3103 1784 3103 
Q 1356 3103 1142 2972 
Q 928 2841 928 2578 
Q 928 2378 1081 2264 
Q 1234 2150 1697 2047 
L 1894 2003 
Q 2506 1872 2764 1633 
Q 3022 1394 3022 966 
Q 3022 478 2636 193 
Q 2250 -91 1575 -91 
Q 1294 -91 989 -36 
Q 684 19 347 128 
L 347 722 
Q 666 556 975 473 
Q 1284 391 1588 391 
Q 1994 391 2212 530 
Q 2431 669 2431 922 
Q 2431 1156 2273 1281 
Q 2116 1406 1581 1522 
L 1381 1569 
Q 847 1681 609 1914 
Q 372 2147 372 2553 
Q 372 3047 722 3315 
Q 1072 3584 1716 3584 
Q 2034 3584 2315 3537 
Q 2597 3491 2834 3397 
z
" transform="scale(0.015625)"/>
      <path id="DejaVuSans-63" d="M 3122 3366 
L 3122 2828 
Q 2878 2963 2633 3030 
Q 2388 3097 2138 3097 
Q 1578 3097 1268 2742 
Q 959 2388 959 1747 
Q 959 1106 1268 751 
Q 1578 397 2138 397 
Q 2388 397 2633 464 
Q 2878 531 3122 666 
L 3122 134 
Q 2881 22 2623 -34 
Q 2366 -91 2075 -91 
Q 1284 -91 818 406 
Q 353 903 353 1747 
Q 353 2603 823 3093 
Q 1294 3584 2113 3584 
Q 2378 3584 2631 3529 
Q 2884 3475 3122 3366 
z
" transform="scale(0.015625)"/>
      <path id="DejaVuSans-6f" d="M 1959 3097 
Q 1497 3097 1228 2736 
Q 959 2375 959 1747 
Q 959 1119 1226 758 
Q 1494 397 1959 397 
Q 2419 397 2687 759 
Q 2956 1122 2956 1747 
Q 2956 2369 2687 2733 
Q 2419 3097 1959 3097 
z
M 1959 3584 
Q 2709 3584 3137 3096 
Q 3566 2609 3566 1747 
Q 3566 888 3137 398 
Q 2709 -91 1959 -91 
Q 1206 -91 779 398 
Q 353 888 353 1747 
Q 353 2609 779 3096 
Q 1206 3584 1959 3584 
z
" transform="scale(0.015625)"/>
      <path id="DejaVuSans-70" d="M 1159 525 
L 1159 -1331 
L 581 -1331 
L 581 3500 
L 1159 3500 
L 1159 2969 
Q 1341 3281 1617 3432 
Q 1894 3584 2278 3584 
Q 2916 3584 3314 3078 
Q 3713 2572 3713 1747 
Q 3713 922 3314 415 
Q 2916 -91 2278 -91 
Q 1894 -91 1617 61 
Q 1341 213 1159 525 
z
M 3116 1747 
Q 3116 2381 2855 2742 
Q 2594 3103 2138 3103 
Q 1681 3103 1420 2742 
Q 1159 2381 1159 1747 
Q 1159 1113 1420 752 
Q 1681 391 2138 391 
Q 2594 391 2855 752 
Q 3116 1113 3116 1747 
z
" transform="scale(0.015625)"/>
      <path id="DejaVuSans-66" d="M 2375 4863 
L 2375 4384 
L 1825 4384 
Q 1516 4384 1395 4259 
Q 1275 4134 1275 3809 
L 1275 3500 
L 2222 3500 
L 2222 3053 
L 1275 3053 
L 1275 0 
L 697 0 
L 697 3053 
L 147 3053 
L 147 3500 
L 697 3500 
L 697 3744 
Q 697 4328 969 4595 
Q 1241 4863 1831 4863 
L 2375 4863 
z
" transform="scale(0.015625)"/>
     </defs>
     <use xlink:href="#DejaVuSans-54"/>
     <use xlink:href="#DejaVuSans-68" x="61.083984"/>
     <use xlink:href="#DejaVuSans-65" x="124.462891"/>
     <use xlink:href="#DejaVuSans-20" x="185.986328"/>
     <use xlink:href="#DejaVuSans-69" x="217.773438"/>
     <use xlink:href="#DejaVuSans-6e" x="245.556641"/>
     <use xlink:href="#DejaVuSans-74" x="308.935547"/>
     <use xlink:href="#DejaVuSans-65" x="348.144531"/>
     <use xlink:href="#DejaVuSans-72" x="409.667969"/>
     <use xlink:href="#DejaVuSans-73" x="450.78125"/>
     <use xlink:href="#DejaVuSans-65" x="502.880859"/>
     <use xlink:href="#DejaVuSans-63" x="564.404297"/>
     <use xlink:href="#DejaVuSans-74" x="619.384766"/>
     <use xlink:href="#DejaVuSans-69" x="658.59375"/>
     <use xlink:href="#DejaVuSans-6f" x="686.376953"/>
     <use xlink:href="#DejaVuSans-6e" x="747.558594"/>
     <use xlink:href="#DejaVuSans-20" x="810.9375"/>
     <use xlink:href="#DejaVuSans-70" x="842.724609"/>
     <use xlink:href="#DejaVuSans-6f" x="906.201172"/>
     <use xlink:href="#DejaVuSans-69" x="967.382812"/>
     <use xlink:href="#DejaVuSans-6e" x="995.166016"/>
     <use xlink:href="#DejaVuSans-74" x="1058.544922"/>
     <use xlink:href="#DejaVuSans-20" x="1097.753906"/>
     <use xlink:href="#DejaVuSans-6f" x="1129.541016"/>
     <use xlink:href="#DejaVuSans-66" x="1190.722656"/>
    </g>
    <!--  f[0] and f[1] -->
    <g transform="translate(430.996987 423.193846) scale(0.1 -0.1)">
     <defs>
      <path id="DejaVuSans-5b" d="M 550 4863 
L 1875 4863 
L 1875 4416 
L 1125 4416 
L 1125 -397 
L 1875 -397 
L 1875 -844 
L 550 -844 
L 550 4863 
z
" transform="scale(0.015625)"/>
      <path id="DejaVuSans-5d" d="M 1947 4863 
L 1947 -844 
L 622 -844 
L 622 -397 
L 1369 -397 
L 1369 4416 
L 622 4416 
L 622 4863 
L 1947 4863 
z
" transform="scale(0.015625)"/>
      <path id="DejaVuSans-61" d="M 2194 1759 
Q 1497 1759 1228 1600 
Q 959 1441 959 1056 
Q 959 750 1161 570 
Q 1363 391 1709 391 
Q 2188 391 2477 730 
Q 2766 1069 2766 1631 
L 2766 1759 
L 2194 1759 
z
M 3341 1997 
L 3341 0 
L 2766 0 
L 2766 531 
Q 2569 213 2275 61 
Q 1981 -91 1556 -91 
Q 1019 -91 701 211 
Q 384 513 384 1019 
Q 384 1609 779 1909 
Q 1175 2209 1959 2209 
L 2766 2209 
L 2766 2266 
Q 2766 2663 2505 2880 
Q 2244 3097 1772 3097 
Q 1472 3097 1187 3025 
Q 903 2953 641 2809 
L 641 3341 
Q 956 3463 1253 3523 
Q 1550 3584 1831 3584 
Q 2591 3584 2966 3190 
Q 3341 2797 3341 1997 
z
" transform="scale(0.015625)"/>
      <path id="DejaVuSans-64" d="M 2906 2969 
L 2906 4863 
L 3481 4863 
L 3481 0 
L 2906 0 
L 2906 525 
Q 2725 213 2448 61 
Q 2172 -91 1784 -91 
Q 1150 -91 751 415 
Q 353 922 353 1747 
Q 353 2572 751 3078 
Q 1150 3584 1784 3584 
Q 2172 3584 2448 3432 
Q 2725 3281 2906 2969 
z
M 947 1747 
Q 947 1113 1208 752 
Q 1469 391 1925 391 
Q 2381 391 2643 752 
Q 2906 1113 2906 1747 
Q 2906 2381 2643 2742 
Q 2381 3103 1925 3103 
Q 1469 3103 1208 2742 
Q 947 2381 947 1747 
z
" transform="scale(0.015625)"/>
     </defs>
     <use xlink:href="#DejaVuSans-20"/>
     <use xlink:href="#DejaVuSans-66" x="31.787109"/>
     <use xlink:href="#DejaVuSans-5b" x="66.992188"/>
     <use xlink:href="#DejaVuSans-30" x="106.005859"/>
     <use xlink:href="#DejaVuSans-5d" x="169.628906"/>
     <use xlink:href="#DejaVuSans-20" x="208.642578"/>
     <use xlink:href="#DejaVuSans-61" x="240.429688"/>
     <use xlink:href="#DejaVuSans-6e" x="301.708984"/>
     <use xlink:href="#DejaVuSans-64" x="365.087891"/>
     <use xlink:href="#DejaVuSans-20" x="428.564453"/>
     <use xlink:href="#DejaVuSans-66" x="460.351562"/>
     <use xlink:href="#DejaVuSans-5b" x="495.556641"/>
     <use xlink:href="#DejaVuSans-31" x="534.570312"/>
     <use xlink:href="#DejaVuSans-5d" x="598.193359"/>
    </g>
   </g>
   <g id="patch_8">
    <path d="M 792.266601 439.181516 
Q 809.526281 416.224492 826.114096 394.161111 
" style="fill: none; stroke: #000000; stroke-linecap: round"/>
    <path d="M 822.111764 396.15644 
L 826.114096 394.161111 
L 825.30896 398.560174 
" style="fill: none; stroke: #000000; stroke-linecap: round"/>
   </g>
   <g id="text_22">
    <!-- The intersection point of -->
    <g transform="translate(720.418973 450.377572) scale(0.1 -0.1)">
     <use xlink:href="#DejaVuSans-54"/>
     <use xlink:href="#DejaVuSans-68" x="61.083984"/>
     <use xlink:href="#DejaVuSans-65" x="124.462891"/>
     <use xlink:href="#DejaVuSans-20" x="185.986328"/>
     <use xlink:href="#DejaVuSans-69" x="217.773438"/>
     <use xlink:href="#DejaVuSans-6e" x="245.556641"/>
     <use xlink:href="#DejaVuSans-74" x="308.935547"/>
     <use xlink:href="#DejaVuSans-65" x="348.144531"/>
     <use xlink:href="#DejaVuSans-72" x="409.667969"/>
     <use xlink:href="#DejaVuSans-73" x="450.78125"/>
     <use xlink:href="#DejaVuSans-65" x="502.880859"/>
     <use xlink:href="#DejaVuSans-63" x="564.404297"/>
     <use xlink:href="#DejaVuSans-74" x="619.384766"/>
     <use xlink:href="#DejaVuSans-69" x="658.59375"/>
     <use xlink:href="#DejaVuSans-6f" x="686.376953"/>
     <use xlink:href="#DejaVuSans-6e" x="747.558594"/>
     <use xlink:href="#DejaVuSans-20" x="810.9375"/>
     <use xlink:href="#DejaVuSans-70" x="842.724609"/>
     <use xlink:href="#DejaVuSans-6f" x="906.201172"/>
     <use xlink:href="#DejaVuSans-69" x="967.382812"/>
     <use xlink:href="#DejaVuSans-6e" x="995.166016"/>
     <use xlink:href="#DejaVuSans-74" x="1058.544922"/>
     <use xlink:href="#DejaVuSans-20" x="1097.753906"/>
     <use xlink:href="#DejaVuSans-6f" x="1129.541016"/>
     <use xlink:href="#DejaVuSans-66" x="1190.722656"/>
    </g>
    <!--  f[1] and f[2] -->
    <g transform="translate(749.854129 461.575385) scale(0.1 -0.1)">
     <use xlink:href="#DejaVuSans-20"/>
     <use xlink:href="#DejaVuSans-66" x="31.787109"/>
     <use xlink:href="#DejaVuSans-5b" x="66.992188"/>
     <use xlink:href="#DejaVuSans-31" x="106.005859"/>
     <use xlink:href="#DejaVuSans-5d" x="169.628906"/>
     <use xlink:href="#DejaVuSans-20" x="208.642578"/>
     <use xlink:href="#DejaVuSans-61" x="240.429688"/>
     <use xlink:href="#DejaVuSans-6e" x="301.708984"/>
     <use xlink:href="#DejaVuSans-64" x="365.087891"/>
     <use xlink:href="#DejaVuSans-20" x="428.564453"/>
     <use xlink:href="#DejaVuSans-66" x="460.351562"/>
     <use xlink:href="#DejaVuSans-5b" x="495.556641"/>
     <use xlink:href="#DejaVuSans-32" x="534.570312"/>
     <use xlink:href="#DejaVuSans-5d" x="598.193359"/>
    </g>
   </g>
   <g id="patch_9">
    <path d="M 778.053618 237.30061 
Q 763.705833 293.633764 749.633996 348.883473 
" style="fill: none; stroke: #000000; stroke-linecap: round"/>
    <path d="M 752.559384 345.500854 
L 749.633996 348.883473 
L 748.683134 344.513592 
" style="fill: none; stroke: #000000; stroke-linecap: round"/>
   </g>
   <g id="text_23">
    <!-- The intersection point of -->
    <g transform="translate(720.418973 220.088341) scale(0.1 -0.1)">
     <use xlink:href="#DejaVuSans-54"/>
     <use xlink:href="#DejaVuSans-68" x="61.083984"/>
     <use xlink:href="#DejaVuSans-65" x="124.462891"/>
     <use xlink:href="#DejaVuSans-20" x="185.986328"/>
     <use xlink:href="#DejaVuSans-69" x="217.773438"/>
     <use xlink:href="#DejaVuSans-6e" x="245.556641"/>
     <use xlink:href="#DejaVuSans-74" x="308.935547"/>
     <use xlink:href="#DejaVuSans-65" x="348.144531"/>
     <use xlink:href="#DejaVuSans-72" x="409.667969"/>
     <use xlink:href="#DejaVuSans-73" x="450.78125"/>
     <use xlink:href="#DejaVuSans-65" x="502.880859"/>
     <use xlink:href="#DejaVuSans-63" x="564.404297"/>
     <use xlink:href="#DejaVuSans-74" x="619.384766"/>
     <use xlink:href="#DejaVuSans-69" x="658.59375"/>
     <use xlink:href="#DejaVuSans-6f" x="686.376953"/>
     <use xlink:href="#DejaVuSans-6e" x="747.558594"/>
     <use xlink:href="#DejaVuSans-20" x="810.9375"/>
     <use xlink:href="#DejaVuSans-70" x="842.724609"/>
     <use xlink:href="#DejaVuSans-6f" x="906.201172"/>
     <use xlink:href="#DejaVuSans-69" x="967.382812"/>
     <use xlink:href="#DejaVuSans-6e" x="995.166016"/>
     <use xlink:href="#DejaVuSans-74" x="1058.544922"/>
     <use xlink:href="#DejaVuSans-20" x="1097.753906"/>
     <use xlink:href="#DejaVuSans-6f" x="1129.541016"/>
     <use xlink:href="#DejaVuSans-66" x="1190.722656"/>
    </g>
    <!--  f[0] and f[2] -->
    <g transform="translate(749.854129 231.286154) scale(0.1 -0.1)">
     <use xlink:href="#DejaVuSans-20"/>
     <use xlink:href="#DejaVuSans-66" x="31.787109"/>
     <use xlink:href="#DejaVuSans-5b" x="66.992188"/>
     <use xlink:href="#DejaVuSans-30" x="106.005859"/>
     <use xlink:href="#DejaVuSans-5d" x="169.628906"/>
     <use xlink:href="#DejaVuSans-20" x="208.642578"/>
     <use xlink:href="#DejaVuSans-61" x="240.429688"/>
     <use xlink:href="#DejaVuSans-6e" x="301.708984"/>
     <use xlink:href="#DejaVuSans-64" x="365.087891"/>
     <use xlink:href="#DejaVuSans-20" x="428.564453"/>
     <use xlink:href="#DejaVuSans-66" x="460.351562"/>
     <use xlink:href="#DejaVuSans-5b" x="495.556641"/>
     <use xlink:href="#DejaVuSans-32" x="534.570312"/>
     <use xlink:href="#DejaVuSans-5d" x="598.193359"/>
    </g>
   </g>
   <g id="text_24">
    <!-- All lines in one figure -->
    <g transform="translate(527.331563 71.76) scale(0.12 -0.12)">
     <defs>
      <path id="DejaVuSans-41" d="M 2188 4044 
L 1331 1722 
L 3047 1722 
L 2188 4044 
z
M 1831 4666 
L 2547 4666 
L 4325 0 
L 3669 0 
L 3244 1197 
L 1141 1197 
L 716 0 
L 50 0 
L 1831 4666 
z
" transform="scale(0.015625)"/>
      <path id="DejaVuSans-6c" d="M 603 4863 
L 1178 4863 
L 1178 0 
L 603 0 
L 603 4863 
z
" transform="scale(0.015625)"/>
      <path id="DejaVuSans-67" d="M 2906 1791 
Q 2906 2416 2648 2759 
Q 2391 3103 1925 3103 
Q 1463 3103 1205 2759 
Q 947 2416 947 1791 
Q 947 1169 1205 825 
Q 1463 481 1925 481 
Q 2391 481 2648 825 
Q 2906 1169 2906 1791 
z
M 3481 434 
Q 3481 -459 3084 -895 
Q 2688 -1331 1869 -1331 
Q 1566 -1331 1297 -1286 
Q 1028 -1241 775 -1147 
L 775 -588 
Q 1028 -725 1275 -790 
Q 1522 -856 1778 -856 
Q 2344 -856 2625 -561 
Q 2906 -266 2906 331 
L 2906 616 
Q 2728 306 2450 153 
Q 2172 0 1784 0 
Q 1141 0 747 490 
Q 353 981 353 1791 
Q 353 2603 747 3093 
Q 1141 3584 1784 3584 
Q 2172 3584 2450 3431 
Q 2728 3278 2906 2969 
L 2906 3500 
L 3481 3500 
L 3481 434 
z
" transform="scale(0.015625)"/>
      <path id="DejaVuSans-75" d="M 544 1381 
L 544 3500 
L 1119 3500 
L 1119 1403 
Q 1119 906 1312 657 
Q 1506 409 1894 409 
Q 2359 409 2629 706 
Q 2900 1003 2900 1516 
L 2900 3500 
L 3475 3500 
L 3475 0 
L 2900 0 
L 2900 538 
Q 2691 219 2414 64 
Q 2138 -91 1772 -91 
Q 1169 -91 856 284 
Q 544 659 544 1381 
z
M 1991 3584 
L 1991 3584 
z
" transform="scale(0.015625)"/>
     </defs>
     <use xlink:href="#DejaVuSans-41"/>
     <use xlink:href="#DejaVuSans-6c" x="68.408203"/>
     <use xlink:href="#DejaVuSans-6c" x="96.191406"/>
     <use xlink:href="#DejaVuSans-20" x="123.974609"/>
     <use xlink:href="#DejaVuSans-6c" x="155.761719"/>
     <use xlink:href="#DejaVuSans-69" x="183.544922"/>
     <use xlink:href="#DejaVuSans-6e" x="211.328125"/>
     <use xlink:href="#DejaVuSans-65" x="274.707031"/>
     <use xlink:href="#DejaVuSans-73" x="336.230469"/>
     <use xlink:href="#DejaVuSans-20" x="388.330078"/>
     <use xlink:href="#DejaVuSans-69" x="420.117188"/>
     <use xlink:href="#DejaVuSans-6e" x="447.900391"/>
     <use xlink:href="#DejaVuSans-20" x="511.279297"/>
     <use xlink:href="#DejaVuSans-6f" x="543.066406"/>
     <use xlink:href="#DejaVuSans-6e" x="604.248047"/>
     <use xlink:href="#DejaVuSans-65" x="667.626953"/>
     <use xlink:href="#DejaVuSans-20" x="729.150391"/>
     <use xlink:href="#DejaVuSans-66" x="760.9375"/>
     <use xlink:href="#DejaVuSans-69" x="796.142578"/>
     <use xlink:href="#DejaVuSans-67" x="823.925781"/>
     <use xlink:href="#DejaVuSans-75" x="887.402344"/>
     <use xlink:href="#DejaVuSans-72" x="950.78125"/>
     <use xlink:href="#DejaVuSans-65" x="989.644531"/>
    </g>
   </g>
   <g id="legend_1">
    <g id="patch_10">
     <path d="M 980.114062 129.794375 
L 1029.8 129.794375 
Q 1031.8 129.794375 1031.8 127.794375 
L 1031.8 84.76 
Q 1031.8 82.76 1029.8 82.76 
L 980.114062 82.76 
Q 978.114062 82.76 978.114062 84.76 
L 978.114062 127.794375 
Q 978.114062 129.794375 980.114062 129.794375 
z
" style="fill: #ffffff; opacity: 0.8; stroke: #cccccc; stroke-linejoin: miter"/>
    </g>
    <g id="line2d_37">
     <path d="M 982.114062 90.858437 
L 992.114062 90.858437 
L 1002.114062 90.858437 
" style="fill: none; stroke-dasharray: 9.6,2.4,1.5,2.4; stroke-dashoffset: 0; stroke: #00bfbf; stroke-width: 1.5"/>
    </g>
    <g id="text_25">
     <!-- f[0] -->
     <g transform="translate(1010.114062 94.358437) scale(0.1 -0.1)">
      <use xlink:href="#DejaVuSans-66"/>
      <use xlink:href="#DejaVuSans-5b" x="35.205078"/>
      <use xlink:href="#DejaVuSans-30" x="74.21875"/>
      <use xlink:href="#DejaVuSans-5d" x="137.841797"/>
     </g>
    </g>
    <g id="line2d_38">
     <path d="M 982.114062 105.536562 
L 992.114062 105.536562 
L 1002.114062 105.536562 
" style="fill: none; stroke-dasharray: 5.55,2.4; stroke-dashoffset: 0; stroke: #bfbf00; stroke-width: 1.5"/>
    </g>
    <g id="text_26">
     <!-- f[1] -->
     <g transform="translate(1010.114062 109.036562) scale(0.1 -0.1)">
      <use xlink:href="#DejaVuSans-66"/>
      <use xlink:href="#DejaVuSans-5b" x="35.205078"/>
      <use xlink:href="#DejaVuSans-31" x="74.21875"/>
      <use xlink:href="#DejaVuSans-5d" x="137.841797"/>
     </g>
    </g>
    <g id="line2d_39">
     <path d="M 982.114062 120.214687 
L 992.114062 120.214687 
L 1002.114062 120.214687 
" style="fill: none; stroke-dasharray: 1.5,2.475; stroke-dashoffset: 0; stroke: #bf00bf; stroke-width: 1.5"/>
    </g>
    <g id="text_27">
     <!-- f[2] -->
     <g transform="translate(1010.114062 123.714687) scale(0.1 -0.1)">
      <use xlink:href="#DejaVuSans-66"/>
      <use xlink:href="#DejaVuSans-5b" x="35.205078"/>
      <use xlink:href="#DejaVuSans-32" x="74.21875"/>
      <use xlink:href="#DejaVuSans-5d" x="137.841797"/>
     </g>
    </g>
   </g>
  </g>
 </g>
 <defs>
  <clipPath id="p7cf423e6fa">
   <rect x="144" y="77.76" width="892.8" height="498.96"/>
  </clipPath>
 </defs>
</svg>
